<svg width="54" height="54" viewBox="0 0 54 54" fill="none" xmlns="http://www.w3.org/2000/svg">
<rect x="0.5" y="0.5" width="53" height="53" rx="9.5" fill="#141414"/>
<rect x="0.5" y="0.5" width="53" height="53" rx="9.5" stroke="#1F1F1F"/>
<g clip-path="url(#clip0_288_4690)">
<g filter="url(#filter0_b_288_4690)">
<mask id="path-2-inside-1_288_4690" fill="white">
<path fill-rule="evenodd" clip-rule="evenodd" d="M26.4836 21.4456C26.7023 21.4448 26.9207 21.4439 27.1382 21.4439C27.3633 21.4439 27.5893 21.4448 27.8158 21.4456C28.2707 21.4474 28.7279 21.4491 29.1851 21.4439C29.8936 21.4281 30.2951 21.0269 30.303 20.3108C30.3108 19.6813 30.3108 19.0519 30.303 18.4224C30.303 17.6749 29.8857 17.25 29.1378 17.25H25.1622C24.4222 17.2579 24.0128 17.6749 24.0049 18.4303V20.2794C24.0049 21.0347 24.4064 21.436 25.1701 21.4439C25.606 21.4491 26.0454 21.4474 26.4836 21.4456ZM35.3335 23.5526H27.1461H18.998C17.5022 23.5526 16.6756 24.3788 16.6599 25.8895C16.652 26.5505 16.5024 26.7 15.849 26.7C15.8172 26.7 15.7863 26.6991 15.7557 26.6982C15.6954 26.6965 15.6361 26.6948 15.5735 26.7C14.9909 26.7393 14.5658 27.1485 14.5579 27.7386C14.55 29.1392 14.55 30.5477 14.5658 31.9482C14.5658 32.5541 14.9988 32.9633 15.6128 32.9948H16.0065C16.4631 33.0105 16.6441 33.1836 16.6677 33.64V33.994C16.6914 35.2687 17.5652 36.1343 18.8406 36.1421C19.864 36.15 20.8874 36.15 21.9109 36.1421C22.8319 36.1421 23.6664 35.8667 24.4065 35.3238C24.6702 35.1271 24.9319 34.9304 25.1937 34.7337C25.4555 34.537 25.7172 34.3403 25.981 34.1435C26.8076 33.5298 27.5318 33.5298 28.3585 34.1514C28.5939 34.3245 28.8279 34.5005 29.0623 34.677C29.3608 34.9017 29.6602 35.127 29.9645 35.3474C30.5077 35.7487 31.1139 36.0477 31.7988 36.0792C32.8253 36.1274 33.8578 36.1334 34.8911 36.1394C35.0386 36.1403 35.186 36.1411 35.3335 36.1421C36.7821 36.15 37.6402 35.3002 37.6481 33.8603C37.6559 33.1206 37.7819 32.9948 38.5219 32.9948C39.3485 32.9948 39.7579 32.5935 39.7579 31.7751V27.9196C39.7579 27.1013 39.3485 26.7 38.5219 26.7C37.7819 26.6921 37.6559 26.5741 37.6481 25.8345C37.6323 24.3945 36.7821 23.5526 35.3335 23.5526Z"/>
</mask>
<path fill-rule="evenodd" clip-rule="evenodd" d="M26.4836 21.4456C26.7023 21.4448 26.9207 21.4439 27.1382 21.4439C27.3633 21.4439 27.5893 21.4448 27.8158 21.4456C28.2707 21.4474 28.7279 21.4491 29.1851 21.4439C29.8936 21.4281 30.2951 21.0269 30.303 20.3108C30.3108 19.6813 30.3108 19.0519 30.303 18.4224C30.303 17.6749 29.8857 17.25 29.1378 17.25H25.1622C24.4222 17.2579 24.0128 17.6749 24.0049 18.4303V20.2794C24.0049 21.0347 24.4064 21.436 25.1701 21.4439C25.606 21.4491 26.0454 21.4474 26.4836 21.4456ZM35.3335 23.5526H27.1461H18.998C17.5022 23.5526 16.6756 24.3788 16.6599 25.8895C16.652 26.5505 16.5024 26.7 15.849 26.7C15.8172 26.7 15.7863 26.6991 15.7557 26.6982C15.6954 26.6965 15.6361 26.6948 15.5735 26.7C14.9909 26.7393 14.5658 27.1485 14.5579 27.7386C14.55 29.1392 14.55 30.5477 14.5658 31.9482C14.5658 32.5541 14.9988 32.9633 15.6128 32.9948H16.0065C16.4631 33.0105 16.6441 33.1836 16.6677 33.64V33.994C16.6914 35.2687 17.5652 36.1343 18.8406 36.1421C19.864 36.15 20.8874 36.15 21.9109 36.1421C22.8319 36.1421 23.6664 35.8667 24.4065 35.3238C24.6702 35.1271 24.9319 34.9304 25.1937 34.7337C25.4555 34.537 25.7172 34.3403 25.981 34.1435C26.8076 33.5298 27.5318 33.5298 28.3585 34.1514C28.5939 34.3245 28.8279 34.5005 29.0623 34.677C29.3608 34.9017 29.6602 35.127 29.9645 35.3474C30.5077 35.7487 31.1139 36.0477 31.7988 36.0792C32.8253 36.1274 33.8578 36.1334 34.8911 36.1394C35.0386 36.1403 35.186 36.1411 35.3335 36.1421C36.7821 36.15 37.6402 35.3002 37.6481 33.8603C37.6559 33.1206 37.7819 32.9948 38.5219 32.9948C39.3485 32.9948 39.7579 32.5935 39.7579 31.7751V27.9196C39.7579 27.1013 39.3485 26.7 38.5219 26.7C37.7819 26.6921 37.6559 26.5741 37.6481 25.8345C37.6323 24.3945 36.7821 23.5526 35.3335 23.5526Z" fill="#E60000"/>
<path d="M26.4836 21.4456L26.4876 22.4456H26.4876L26.4836 21.4456ZM27.8158 21.4456L27.812 22.4456L27.8158 21.4456ZM29.1851 21.4439L29.1966 22.4439L29.2073 22.4436L29.1851 21.4439ZM30.303 20.3108L29.303 20.2983L29.303 20.2998L30.303 20.3108ZM30.303 18.4224H29.3029L29.303 18.4349L30.303 18.4224ZM25.1622 17.25V16.2499L25.1516 16.2501L25.1622 17.25ZM24.0049 18.4303L23.0049 18.4198V18.4303H24.0049ZM25.1701 21.4439L25.1821 20.444L25.1804 20.4439L25.1701 21.4439ZM16.6599 25.8895L17.6598 25.9015L17.6598 25.9L16.6599 25.8895ZM15.7557 26.6982L15.7269 27.6978L15.7269 27.6978L15.7557 26.6982ZM15.5735 26.7L15.6408 27.6977L15.6487 27.6972L15.6565 27.6965L15.5735 26.7ZM14.5579 27.7386L13.558 27.7253L13.5579 27.733L14.5579 27.7386ZM14.5658 31.9482H15.5658L15.5657 31.937L14.5658 31.9482ZM15.6128 32.9948L15.5616 33.9934L15.5872 33.9948H15.6128V32.9948ZM16.0065 32.9948L16.0409 31.9953L16.0237 31.9948H16.0065V32.9948ZM16.6677 33.64H17.6677V33.6141L17.6664 33.5883L16.6677 33.64ZM16.6677 33.994H15.6677V34.0033L15.6679 34.0126L16.6677 33.994ZM18.8406 36.1421L18.8483 35.1422L18.8467 35.1421L18.8406 36.1421ZM21.9109 36.1421V35.1421L21.9032 35.1422L21.9109 36.1421ZM24.4065 35.3238L24.998 36.1301L25.0043 36.1254L24.4065 35.3238ZM25.1937 34.7337L25.7945 35.5331L25.7945 35.5331L25.1937 34.7337ZM25.981 34.1435L25.3848 33.3406L25.3831 33.342L25.981 34.1435ZM28.3585 34.1514L27.7574 34.9507L27.7663 34.9572L28.3585 34.1514ZM29.0623 34.677L28.4609 35.476H28.4609L29.0623 34.677ZM29.9645 35.3474L30.5587 34.5431L30.551 34.5375L29.9645 35.3474ZM31.7988 36.0792L31.8457 35.0803L31.8447 35.0802L31.7988 36.0792ZM34.8911 36.1394L34.8969 35.1394H34.8969L34.8911 36.1394ZM35.3335 36.1421L35.3269 37.1421L35.3281 37.1421L35.3335 36.1421ZM37.6481 33.8603L36.6481 33.8496L36.6481 33.8548L37.6481 33.8603ZM38.5219 26.7L38.5113 27.7H38.5219V26.7ZM37.6481 25.8345L38.648 25.8238L38.648 25.8235L37.6481 25.8345ZM27.1382 20.4439C26.9184 20.4439 26.698 20.4448 26.4796 20.4456L26.4876 22.4456C26.7066 22.4447 26.923 22.4439 27.1382 22.4439V20.4439ZM27.8197 20.4456C27.5934 20.4448 27.3655 20.4439 27.1382 20.4439V22.4439C27.3611 22.4439 27.5851 22.4447 27.812 22.4456L27.8197 20.4456ZM29.1736 20.4439C28.7253 20.4491 28.2758 20.4474 27.8197 20.4456L27.812 22.4456C28.2656 22.4474 28.7304 22.4492 29.1966 22.4438L29.1736 20.4439ZM29.303 20.2998C29.3021 20.3878 29.2892 20.4337 29.2836 20.4494C29.279 20.4621 29.2806 20.4521 29.2962 20.4363C29.3118 20.4205 29.3218 20.4188 29.3094 20.4234C29.2941 20.4291 29.2492 20.4422 29.1629 20.4441L29.2073 22.4436C29.7433 22.4317 30.2969 22.2681 30.7173 21.8436C31.138 21.4188 31.297 20.8622 31.3029 20.3218L29.303 20.2998ZM29.303 18.4349C29.3108 19.056 29.3108 19.6772 29.303 20.2983L31.3029 20.3233C31.3109 19.6855 31.3109 19.0477 31.3029 18.4099L29.303 18.4349ZM29.1378 18.25C29.2316 18.25 29.2812 18.2635 29.2992 18.2698C29.3139 18.2751 29.3051 18.2745 29.2904 18.2597C29.2759 18.245 29.2763 18.2373 29.2824 18.2546C29.2895 18.275 29.303 18.327 29.303 18.4224H31.303C31.303 17.8668 31.1451 17.29 30.7113 16.8521C30.276 16.4127 29.6986 16.25 29.1378 16.25V18.25ZM25.1622 18.25H29.1378V16.25H25.1622V18.25ZM25.0049 18.4407C25.007 18.236 25.0599 18.2223 25.0229 18.26C25.0084 18.2749 24.9991 18.276 25.013 18.271C25.0302 18.2647 25.0792 18.2509 25.1728 18.2499L25.1516 16.2501C24.5981 16.2559 24.0266 16.4197 23.5951 16.8596C23.1664 17.2966 23.0107 17.8692 23.005 18.4198L25.0049 18.4407ZM25.0049 20.2794V18.4303H23.0049V20.2794H25.0049ZM25.1804 20.4439C25.0738 20.4428 25.0168 20.4281 24.9949 20.4205C24.9768 20.4142 24.9886 20.4152 25.0081 20.4346C25.0277 20.4543 25.03 20.4676 25.0251 20.4533C25.0188 20.4349 25.0049 20.3818 25.0049 20.2794H23.0049C23.0049 20.8275 23.1529 21.4081 23.5942 21.8492C24.0337 22.2885 24.6132 22.4382 25.1598 22.4438L25.1804 20.4439ZM26.4796 20.4456C26.04 20.4474 25.6086 20.4491 25.1821 20.444L25.158 22.4438C25.6033 22.4492 26.0508 22.4474 26.4876 22.4456L26.4796 20.4456ZM27.1461 24.5526H35.3335V22.5526H27.1461V24.5526ZM18.998 24.5526H27.1461V22.5526H18.998V24.5526ZM17.6598 25.9C17.6659 25.3195 17.8238 25.0188 17.9809 24.8618C18.1364 24.7064 18.4304 24.5526 18.998 24.5526V22.5526C18.0699 22.5526 17.2027 22.8119 16.567 23.4473C15.9329 24.0811 15.6696 24.9489 15.6599 25.8791L17.6598 25.9ZM15.849 27.7C16.1527 27.7 16.7606 27.6926 17.2034 27.2499C17.6422 26.8114 17.6562 26.2063 17.6598 25.9015L15.6599 25.8776C15.6592 25.9429 15.6567 25.99 15.6537 26.0236C15.6506 26.0577 15.6476 26.0689 15.6487 26.0645C15.6513 26.0536 15.6793 25.9456 15.7896 25.8353C15.9007 25.7242 16.0109 25.6952 16.0265 25.6917C16.0327 25.6902 16.0232 25.6929 15.9907 25.6955C15.9585 25.6981 15.9129 25.7 15.849 25.7V27.7ZM15.7269 27.6978C15.7554 27.6986 15.8005 27.7 15.849 27.7V25.7C15.8339 25.7 15.8172 25.6996 15.7845 25.6986L15.7269 27.6978ZM15.6565 27.6965C15.6529 27.6968 15.6546 27.6965 15.6657 27.6965C15.679 27.6965 15.6944 27.6969 15.7269 27.6978L15.7845 25.6986C15.7313 25.6971 15.6175 25.6929 15.4905 25.7034L15.6565 27.6965ZM15.5578 27.752C15.5582 27.724 15.5631 27.7127 15.5631 27.7127C15.5633 27.7122 15.563 27.7129 15.562 27.7144C15.561 27.7159 15.5599 27.7172 15.559 27.7181C15.5568 27.7204 15.5587 27.7174 15.5695 27.7127C15.5806 27.7078 15.6034 27.7002 15.6408 27.6977L15.5061 25.7023C14.4488 25.7737 13.5734 26.5702 13.558 27.7253L15.5578 27.752ZM15.5657 31.937C15.5501 30.5438 15.55 29.1412 15.5579 27.7443L13.5579 27.733C13.55 29.1372 13.55 30.5516 13.5658 31.9595L15.5657 31.937ZM15.664 31.9961C15.5665 31.9911 15.5475 31.9614 15.5602 31.9739C15.5653 31.9789 15.5688 31.9849 15.57 31.9879C15.5711 31.9905 15.5658 31.9795 15.5658 31.9482H13.5658C13.5658 32.5011 13.7691 33.0175 14.1578 33.3999C14.5406 33.7763 15.0451 33.967 15.5616 33.9934L15.664 31.9961ZM16.0065 31.9948H15.6128V33.9948H16.0065V31.9948ZM17.6664 33.5883C17.6497 33.2654 17.5705 32.7984 17.1963 32.4349C16.8247 32.0739 16.3584 32.0063 16.0409 31.9953L15.972 33.9942C16.031 33.9962 16.032 34.0023 15.9999 33.9922C15.9604 33.9798 15.8816 33.9461 15.8027 33.8694C15.639 33.7104 15.6622 33.5581 15.6691 33.6916L17.6664 33.5883ZM17.6677 33.994V33.64H15.6677V33.994H17.6677ZM18.8467 35.1421C18.4396 35.1396 18.1624 35.0047 17.988 34.8322C17.8134 34.6595 17.6751 34.3832 17.6676 33.9755L15.6679 34.0126C15.684 34.8796 15.9944 35.6734 16.5815 36.2541C17.1688 36.835 17.9662 37.1368 18.8344 37.1421L18.8467 35.1421ZM21.9032 35.1422C20.8849 35.15 19.8666 35.15 18.8483 35.1422L18.8329 37.1421C19.8614 37.15 20.89 37.15 21.9185 37.1421L21.9032 35.1422ZM23.8149 34.5175C23.2455 34.9353 22.618 35.1421 21.9109 35.1421V37.1421C23.0459 37.1421 24.0874 36.7982 24.998 36.1301L23.8149 34.5175ZM24.5929 33.9342C24.3309 34.1311 24.0706 34.3268 23.8086 34.5222L25.0043 36.1254C25.2697 35.9274 25.5329 35.7296 25.7945 35.5331L24.5929 33.9342ZM25.3831 33.342C25.1177 33.5399 24.8545 33.7377 24.5929 33.9342L25.7945 35.5331C26.0565 35.3362 26.3168 35.1406 26.5788 34.9451L25.3831 33.342ZM28.9595 33.3522C28.4371 32.9594 27.8438 32.6859 27.1722 32.6842C26.5009 32.6825 25.9072 32.9528 25.3848 33.3407L26.5771 34.9464C26.8814 34.7205 27.0631 34.684 27.1672 34.6842C27.2711 34.6845 27.4532 34.7218 27.7574 34.9506L28.9595 33.3522ZM29.6637 33.878C29.43 33.7022 29.1915 33.5226 28.9507 33.3456L27.7663 34.9572C27.9963 35.1263 28.2257 35.2989 28.4609 35.476L29.6637 33.878ZM30.551 34.5375C30.2554 34.3234 29.9634 34.1037 29.6637 33.878L28.4609 35.476C28.7583 35.6998 29.0649 35.9306 29.3779 36.1573L30.551 34.5375ZM31.8447 35.0802C31.4314 35.0612 31.0143 34.8797 30.5587 34.5431L29.3703 36.1517C30.001 36.6177 30.7963 37.0342 31.7529 37.0781L31.8447 35.0802ZM34.8969 35.1394C33.8601 35.1334 32.8482 35.1274 31.8457 35.0803L31.7519 37.0781C32.8023 37.1274 33.8555 37.1334 34.8852 37.1394L34.8969 35.1394ZM35.3402 35.1422C35.1922 35.1412 35.0443 35.1403 34.8969 35.1394L34.8852 37.1394C35.0328 37.1403 35.1799 37.1411 35.3269 37.1421L35.3402 35.1422ZM36.6481 33.8548C36.6452 34.3774 36.4926 34.6705 36.3286 34.8324C36.1643 34.9946 35.8671 35.145 35.339 35.1421L35.3281 37.1421C36.2485 37.1471 37.1047 36.8766 37.7335 36.2558C38.3627 35.6348 38.643 34.7831 38.648 33.8657L36.6481 33.8548ZM38.5219 31.9948C38.3233 31.9948 38.0946 32.0018 37.8769 32.0457C37.6482 32.0917 37.3555 32.1929 37.1063 32.4401C36.8573 32.687 36.7536 32.9786 36.7055 33.2062C36.6596 33.4231 36.6502 33.6514 36.6481 33.8496L38.648 33.8709C38.6489 33.791 38.6512 33.7315 38.6546 33.6865C38.6563 33.6646 38.6581 33.6483 38.6596 33.6368C38.6604 33.6311 38.661 33.6268 38.6615 33.624C38.662 33.6211 38.6623 33.6197 38.6622 33.6198C38.6622 33.6199 38.6619 33.6215 38.6611 33.6246C38.6603 33.6277 38.6589 33.6324 38.657 33.6386C38.653 33.6507 38.6463 33.6693 38.6352 33.6924C38.612 33.741 38.5736 33.8017 38.5146 33.8602C38.4555 33.9188 38.3944 33.9568 38.3453 33.9797C38.322 33.9906 38.3032 33.9972 38.2909 34.0011C38.2787 34.0049 38.2717 34.0063 38.2717 34.0063C38.2717 34.0063 38.2768 34.0053 38.2883 34.0039C38.2998 34.0025 38.316 34.0009 38.3379 33.9994C38.3827 33.9965 38.4421 33.9948 38.5219 33.9948V31.9948ZM38.7579 31.7751C38.7579 32.03 38.695 32.0318 38.7481 31.9794C38.7984 31.9299 38.7884 31.9948 38.5219 31.9948V33.9948C39.082 33.9948 39.69 33.859 40.1517 33.4042C40.6161 32.9466 40.7579 32.3386 40.7579 31.7751H38.7579ZM38.7579 27.9196V31.7751H40.7579V27.9196H38.7579ZM38.5219 27.7C38.7884 27.7 38.7984 27.7649 38.7481 27.7153C38.695 27.663 38.7579 27.6647 38.7579 27.9196H40.7579C40.7579 27.3562 40.6161 26.7481 40.1517 26.2905C39.69 25.8358 39.082 25.7 38.5219 25.7V27.7ZM36.6481 25.8451C36.6502 26.0431 36.6596 26.2715 36.7057 26.4885C36.7543 26.717 36.8589 27.0083 37.1091 27.2545C37.3581 27.4994 37.6492 27.5992 37.8739 27.6452C38.0884 27.6891 38.3149 27.6979 38.5113 27.6999L38.5325 25.7001C38.4516 25.6992 38.3912 25.6969 38.3451 25.6935C38.2983 25.6901 38.2778 25.6864 38.2747 25.6857C38.2718 25.6851 38.2997 25.6904 38.344 25.711C38.3917 25.7332 38.4525 25.7705 38.5117 25.8288C38.5711 25.8872 38.6102 25.9481 38.634 25.9977C38.6453 26.0211 38.6523 26.0402 38.6564 26.0528C38.6604 26.0653 38.662 26.0725 38.662 26.0728C38.6621 26.0731 38.661 26.0682 38.6595 26.0568C38.658 26.0455 38.6563 26.0294 38.6546 26.0077C38.6512 25.9631 38.6489 25.9038 38.648 25.8238L36.6481 25.8451ZM35.3335 24.5526C35.8649 24.5526 36.1617 24.7035 36.3256 24.8653C36.4893 25.0268 36.6424 25.3196 36.6481 25.8454L38.648 25.8235C38.638 24.9094 38.3581 24.0613 37.7306 23.4419C37.1033 22.8227 36.2507 22.5526 35.3335 22.5526V24.5526Z" fill="#E60000" mask="url(#path-2-inside-1_288_4690)"/>
</g>
</g>
<defs>
<filter id="filter0_b_288_4690" x="2.55273" y="5.25" width="49.2051" height="42.898" filterUnits="userSpaceOnUse" color-interpolation-filters="sRGB">
<feFlood flood-opacity="0" result="BackgroundImageFix"/>
<feGaussianBlur in="BackgroundImageFix" stdDeviation="6"/>
<feComposite in2="SourceAlpha" operator="in" result="effect1_backgroundBlur_288_4690"/>
<feBlend mode="normal" in="SourceGraphic" in2="effect1_backgroundBlur_288_4690" result="shape"/>
</filter>
<clipPath id="clip0_288_4690">
<rect width="25.2" height="18.9" fill="white" transform="translate(14.55 17.25)"/>
</clipPath>
</defs>
</svg>
