<svg width="54" height="54" viewBox="0 0 54 54" fill="none" xmlns="http://www.w3.org/2000/svg">
<rect x="0.5" y="0.5" width="53" height="53" rx="9.5" fill="#141414"/>
<rect x="0.5" y="0.5" width="53" height="53" rx="9.5" stroke="#1F1F1F"/>
<g clip-path="url(#clip0_288_4680)">
<g filter="url(#filter0_b_288_4680)">
<mask id="path-2-inside-1_288_4680" fill="white">
<path fill-rule="evenodd" clip-rule="evenodd" d="M26.2602 20.0162H28.0398C28.0398 19.7369 28.0419 19.4638 28.0439 19.1944C28.0478 18.6665 28.0517 18.153 28.0398 17.6355C28.0218 17.1683 27.6443 16.827 27.1949 16.8C26.7455 16.782 26.2961 17.0965 26.2692 17.5456C26.244 18.1168 26.2496 18.6879 26.2553 19.2652C26.2577 19.5142 26.2602 19.7644 26.2602 20.0162ZM14.1716 28.7875C13.8922 29.7184 13.6134 30.647 13.65 31.641C13.65 31.7009 13.649 31.7608 13.648 31.8207C13.646 31.9405 13.644 32.0603 13.65 32.18C13.8477 35.3064 16.8228 37.3277 19.7978 36.3395C21.119 35.8993 22.0628 35.0099 22.611 33.7342C23.1144 32.5753 23.9233 31.7219 25.1097 31.2996C26.3141 30.8684 27.5634 30.8774 28.7858 31.1739C30.125 31.5063 30.9879 32.4136 31.5451 33.6623C32.4709 35.7555 34.7898 36.9504 36.92 36.4563C39.4815 35.8633 41.1713 33.1772 40.4972 30.6349C39.913 28.4069 39.2838 26.1969 38.5827 24.0049C37.4862 20.5731 33.0731 19.1986 30.3857 21.6602C30.2778 21.759 30.0891 21.8219 29.9453 21.8219C28.0578 21.8309 26.1703 21.8309 24.2828 21.8219C24.121 21.8219 23.9233 21.759 23.8064 21.6512C21.0471 19.1537 16.5351 20.6181 15.5105 24.1846C15.4139 24.5147 15.3167 24.8449 15.2195 25.175C14.928 26.1655 14.6364 27.1559 14.36 28.1464C14.2997 28.3607 14.2357 28.5742 14.1716 28.7875ZM32.3249 27.1629C32.4251 27.0658 32.5348 26.9596 32.6596 26.8348C32.5639 26.7497 32.4724 26.6731 32.3856 26.6004C32.2524 26.4888 32.1303 26.3866 32.0215 26.2778C31.5631 25.8196 31.5361 25.2806 31.9226 24.8943C32.3091 24.508 32.8484 24.5529 33.3068 25.0111C33.4561 25.1604 33.5998 25.3153 33.7736 25.5025C33.8194 25.5519 33.8673 25.6035 33.918 25.6579C33.9899 25.5781 34.0578 25.5006 34.1237 25.4255C34.2802 25.247 34.425 25.082 34.5831 24.9302C34.9875 24.5439 35.5088 24.5349 35.8684 24.8853C36.2459 25.2536 36.2369 25.7927 35.8414 26.2059C35.6905 26.3632 35.5253 26.5062 35.3283 26.6768C35.2553 26.7399 35.178 26.8068 35.0954 26.8797C35.2079 26.9849 35.3146 27.0784 35.416 27.1673C35.5656 27.2985 35.7038 27.4196 35.8324 27.5535C36.2369 27.9757 36.2369 28.5147 35.8684 28.8741C35.4909 29.2424 34.9696 29.2244 34.5561 28.8112C34.422 28.6713 34.2993 28.5201 34.1633 28.3526C34.0897 28.262 34.0122 28.1665 33.927 28.0655C33.8213 28.1778 33.7289 28.2791 33.6437 28.3727C33.497 28.5336 33.3713 28.6715 33.2349 28.8022C32.8035 29.2154 32.2911 29.2424 31.9136 28.8741C31.5272 28.4967 31.5451 27.9577 31.9676 27.5175C32.0795 27.4006 32.1942 27.2895 32.3249 27.1629ZM19.6229 25.9882C19.7275 25.9892 19.8358 25.9903 19.9506 25.9903C19.9506 25.8982 19.95 25.8123 19.9494 25.7309C19.9477 25.5024 19.9463 25.3086 19.9596 25.1099C19.9776 24.5709 20.3551 24.1846 20.8584 24.1936C21.3527 24.1936 21.7302 24.5799 21.7482 25.1279C21.7541 25.3039 21.7523 25.48 21.7503 25.6711C21.7493 25.7725 21.7482 25.8782 21.7482 25.9903C21.8521 25.9903 21.953 25.9893 22.0517 25.9882C22.2433 25.9863 22.4272 25.9844 22.611 25.9903C23.1503 26.0083 23.5368 26.3856 23.5368 26.8797C23.5368 27.3828 23.1503 27.7601 22.611 27.778C22.4363 27.7839 22.2653 27.7821 22.0735 27.7802C21.9695 27.7792 21.8594 27.778 21.7392 27.778C21.7392 27.8797 21.7403 27.9771 21.7413 28.0717C21.7433 28.2531 21.7451 28.4244 21.7392 28.5956C21.7302 29.1795 21.3797 29.5658 20.8584 29.5748C20.3281 29.5838 19.9596 29.1885 19.9506 28.5776V27.778C19.8354 27.778 19.7267 27.7791 19.6223 27.7802C19.4251 27.7821 19.2429 27.7839 19.0608 27.778C18.5395 27.7511 18.162 27.3828 18.153 26.9066C18.135 26.4125 18.5125 26.0172 19.0518 25.9903C19.2401 25.9844 19.4246 25.9862 19.6229 25.9882Z"/>
</mask>
<path fill-rule="evenodd" clip-rule="evenodd" d="M26.2602 20.0162H28.0398C28.0398 19.7369 28.0419 19.4638 28.0439 19.1944C28.0478 18.6665 28.0517 18.153 28.0398 17.6355C28.0218 17.1683 27.6443 16.827 27.1949 16.8C26.7455 16.782 26.2961 17.0965 26.2692 17.5456C26.244 18.1168 26.2496 18.6879 26.2553 19.2652C26.2577 19.5142 26.2602 19.7644 26.2602 20.0162ZM14.1716 28.7875C13.8922 29.7184 13.6134 30.647 13.65 31.641C13.65 31.7009 13.649 31.7608 13.648 31.8207C13.646 31.9405 13.644 32.0603 13.65 32.18C13.8477 35.3064 16.8228 37.3277 19.7978 36.3395C21.119 35.8993 22.0628 35.0099 22.611 33.7342C23.1144 32.5753 23.9233 31.7219 25.1097 31.2996C26.3141 30.8684 27.5634 30.8774 28.7858 31.1739C30.125 31.5063 30.9879 32.4136 31.5451 33.6623C32.4709 35.7555 34.7898 36.9504 36.92 36.4563C39.4815 35.8633 41.1713 33.1772 40.4972 30.6349C39.913 28.4069 39.2838 26.1969 38.5827 24.0049C37.4862 20.5731 33.0731 19.1986 30.3857 21.6602C30.2778 21.759 30.0891 21.8219 29.9453 21.8219C28.0578 21.8309 26.1703 21.8309 24.2828 21.8219C24.121 21.8219 23.9233 21.759 23.8064 21.6512C21.0471 19.1537 16.5351 20.6181 15.5105 24.1846C15.4139 24.5147 15.3167 24.8449 15.2195 25.175C14.928 26.1655 14.6364 27.1559 14.36 28.1464C14.2997 28.3607 14.2357 28.5742 14.1716 28.7875ZM32.3249 27.1629C32.4251 27.0658 32.5348 26.9596 32.6596 26.8348C32.5639 26.7497 32.4724 26.6731 32.3856 26.6004C32.2524 26.4888 32.1303 26.3866 32.0215 26.2778C31.5631 25.8196 31.5361 25.2806 31.9226 24.8943C32.3091 24.508 32.8484 24.5529 33.3068 25.0111C33.4561 25.1604 33.5998 25.3153 33.7736 25.5025C33.8194 25.5519 33.8673 25.6035 33.918 25.6579C33.9899 25.5781 34.0578 25.5006 34.1237 25.4255C34.2802 25.247 34.425 25.082 34.5831 24.9302C34.9875 24.5439 35.5088 24.5349 35.8684 24.8853C36.2459 25.2536 36.2369 25.7927 35.8414 26.2059C35.6905 26.3632 35.5253 26.5062 35.3283 26.6768C35.2553 26.7399 35.178 26.8068 35.0954 26.8797C35.2079 26.9849 35.3146 27.0784 35.416 27.1673C35.5656 27.2985 35.7038 27.4196 35.8324 27.5535C36.2369 27.9757 36.2369 28.5147 35.8684 28.8741C35.4909 29.2424 34.9696 29.2244 34.5561 28.8112C34.422 28.6713 34.2993 28.5201 34.1633 28.3526C34.0897 28.262 34.0122 28.1665 33.927 28.0655C33.8213 28.1778 33.7289 28.2791 33.6437 28.3727C33.497 28.5336 33.3713 28.6715 33.2349 28.8022C32.8035 29.2154 32.2911 29.2424 31.9136 28.8741C31.5272 28.4967 31.5451 27.9577 31.9676 27.5175C32.0795 27.4006 32.1942 27.2895 32.3249 27.1629ZM19.6229 25.9882C19.7275 25.9892 19.8358 25.9903 19.9506 25.9903C19.9506 25.8982 19.95 25.8123 19.9494 25.7309C19.9477 25.5024 19.9463 25.3086 19.9596 25.1099C19.9776 24.5709 20.3551 24.1846 20.8584 24.1936C21.3527 24.1936 21.7302 24.5799 21.7482 25.1279C21.7541 25.3039 21.7523 25.48 21.7503 25.6711C21.7493 25.7725 21.7482 25.8782 21.7482 25.9903C21.8521 25.9903 21.953 25.9893 22.0517 25.9882C22.2433 25.9863 22.4272 25.9844 22.611 25.9903C23.1503 26.0083 23.5368 26.3856 23.5368 26.8797C23.5368 27.3828 23.1503 27.7601 22.611 27.778C22.4363 27.7839 22.2653 27.7821 22.0735 27.7802C21.9695 27.7792 21.8594 27.778 21.7392 27.778C21.7392 27.8797 21.7403 27.9771 21.7413 28.0717C21.7433 28.2531 21.7451 28.4244 21.7392 28.5956C21.7302 29.1795 21.3797 29.5658 20.8584 29.5748C20.3281 29.5838 19.9596 29.1885 19.9506 28.5776V27.778C19.8354 27.778 19.7267 27.7791 19.6223 27.7802C19.4251 27.7821 19.2429 27.7839 19.0608 27.778C18.5395 27.7511 18.162 27.3828 18.153 26.9066C18.135 26.4125 18.5125 26.0172 19.0518 25.9903C19.2401 25.9844 19.4246 25.9862 19.6229 25.9882Z" fill="#E60000"/>
<path d="M28.0398 20.0162V21.0162H29.0398V20.0162H28.0398ZM26.2602 20.0162H25.2602V21.0162H26.2602V20.0162ZM28.0439 19.1944L29.0438 19.2019V19.2019L28.0439 19.1944ZM28.0398 17.6355L29.0395 17.6125L29.0394 17.6048L29.0391 17.597L28.0398 17.6355ZM27.1949 16.8L27.2548 15.8018L27.2448 15.8012L27.2349 15.8008L27.1949 16.8ZM26.2692 17.5456L25.271 17.4857L25.2705 17.4937L25.2701 17.5017L26.2692 17.5456ZM26.2553 19.2652L27.2552 19.2554V19.2554L26.2553 19.2652ZM13.65 31.641H14.65V31.6226L14.6493 31.6043L13.65 31.641ZM14.1716 28.7875L15.1294 29.075L15.1294 29.075L14.1716 28.7875ZM13.648 31.8207L12.6481 31.804L13.648 31.8207ZM13.65 32.18L12.6512 32.23L12.652 32.2432L13.65 32.18ZM19.7978 36.3395L20.113 37.2885L20.1139 37.2882L19.7978 36.3395ZM22.611 33.7342L21.6938 33.3358L21.6923 33.3394L22.611 33.7342ZM25.1097 31.2996L25.445 32.2418L25.4468 32.2411L25.1097 31.2996ZM28.7858 31.1739L29.0267 30.2033L29.0215 30.202L28.7858 31.1739ZM31.5451 33.6623L32.4597 33.2579L32.4583 33.2548L31.5451 33.6623ZM36.92 36.4563L36.6945 35.482L36.694 35.4821L36.92 36.4563ZM40.4972 30.6349L39.5299 30.8885L39.5306 30.8911L40.4972 30.6349ZM38.5827 24.0049L37.6302 24.3093L37.6303 24.3095L38.5827 24.0049ZM30.3857 21.6602L29.7102 20.9228L29.7101 20.9229L30.3857 21.6602ZM29.9453 21.8219V20.8219L29.9405 20.8219L29.9453 21.8219ZM24.2828 21.8219L24.2876 20.8219H24.2828V21.8219ZM23.8064 21.6512L24.4846 20.9162L24.4775 20.9098L23.8064 21.6512ZM15.5105 24.1846L16.4703 24.4655L16.4716 24.4607L15.5105 24.1846ZM15.2195 25.175L14.2602 24.8926L14.2602 24.8927L15.2195 25.175ZM14.36 28.1464L15.3227 28.4172L15.3232 28.4152L14.36 28.1464ZM32.6596 26.8348L33.3666 27.542L34.117 26.7919L33.3238 26.0872L32.6596 26.8348ZM32.3249 27.1629L33.0206 27.8812L33.0206 27.8812L32.3249 27.1629ZM32.3856 26.6004L31.7435 27.367L31.7435 27.367L32.3856 26.6004ZM32.0215 26.2778L32.7284 25.5705L32.7284 25.5705L32.0215 26.2778ZM31.9226 24.8943L31.2157 24.187L31.2157 24.187L31.9226 24.8943ZM33.3068 25.0111L34.0137 24.3038L34.0137 24.3038L33.3068 25.0111ZM33.7736 25.5025L33.0405 26.1826L33.0405 26.1826L33.7736 25.5025ZM33.918 25.6579L33.1862 26.3395L33.9305 27.1385L34.6611 26.327L33.918 25.6579ZM34.1237 25.4255L33.3719 24.7661L33.3719 24.7661L34.1237 25.4255ZM34.5831 24.9302L33.8924 24.2071L33.8907 24.2087L34.5831 24.9302ZM35.8684 24.8853L36.5667 24.1696L36.5663 24.1691L35.8684 24.8853ZM35.8414 26.2059L36.5632 26.898L36.5639 26.8973L35.8414 26.2059ZM35.3283 26.6768L34.6739 25.9206L34.6739 25.9206L35.3283 26.6768ZM35.0954 26.8797L34.434 26.1297L33.6081 26.858L34.4124 27.6101L35.0954 26.8797ZM35.416 27.1673L34.7568 27.9193L34.7568 27.9193L35.416 27.1673ZM35.8324 27.5535L36.5546 26.8617L36.5536 26.8607L35.8324 27.5535ZM35.8684 28.8741L35.1702 28.1581L35.17 28.1583L35.8684 28.8741ZM34.5561 28.8112L33.8343 29.5032L33.8417 29.5109L33.8492 29.5184L34.5561 28.8112ZM34.1633 28.3526L34.9397 27.7224L34.9397 27.7224L34.1633 28.3526ZM33.927 28.0655L34.6911 27.4205L33.9677 26.5635L33.1989 27.38L33.927 28.0655ZM33.6437 28.3727L34.3828 29.0462L34.3828 29.0462L33.6437 28.3727ZM33.2349 28.8022L33.9266 29.5243L33.9266 29.5243L33.2349 28.8022ZM31.9136 28.8741L31.2151 29.5896L31.2153 29.5898L31.9136 28.8741ZM31.9676 27.5175L32.6891 28.2099L32.69 28.2089L31.9676 27.5175ZM19.9506 25.9903V26.9903H20.9506V25.9903H19.9506ZM19.6229 25.9882L19.6131 26.9881H19.6131L19.6229 25.9882ZM19.9494 25.7309L20.9494 25.7236V25.7236L19.9494 25.7309ZM19.9596 25.1099L20.9574 25.1764L20.9585 25.1599L20.959 25.1432L19.9596 25.1099ZM20.8584 24.1936L20.8405 25.1934L20.8495 25.1936H20.8584V24.1936ZM21.7482 25.1279L20.7487 25.1607L20.7487 25.1612L21.7482 25.1279ZM21.7503 25.6711L22.7503 25.6813V25.6813L21.7503 25.6711ZM21.7482 25.9903H20.7482V26.9903H21.7482V25.9903ZM22.0517 25.9882L22.062 26.9882H22.062L22.0517 25.9882ZM22.611 25.9903L22.6443 24.9909L22.6433 24.9908L22.611 25.9903ZM22.611 27.778L22.6443 28.7775H22.6443L22.611 27.778ZM22.0735 27.7802L22.0836 26.7803H22.0836L22.0735 27.7802ZM21.7392 27.778V26.778H20.7392V27.778H21.7392ZM21.7413 28.0717L20.7413 28.0826V28.0826L21.7413 28.0717ZM21.7392 28.5956L20.7398 28.5611L20.7395 28.5706L20.7393 28.5802L21.7392 28.5956ZM20.8584 29.5748L20.8753 30.5746L20.8756 30.5746L20.8584 29.5748ZM19.9506 28.5776H18.9506V28.585L18.9507 28.5923L19.9506 28.5776ZM19.9506 27.778H20.9506V26.778H19.9506V27.778ZM19.6223 27.7802L19.6322 28.7801L19.6322 28.7801L19.6223 27.7802ZM19.0608 27.778L19.0091 28.7767L19.0188 28.7772L19.0286 28.7775L19.0608 27.778ZM18.153 26.9066L19.1528 26.8878L19.1526 26.879L19.1523 26.8703L18.153 26.9066ZM19.0518 25.9903L19.0206 24.9908L19.0112 24.9911L19.0019 24.9915L19.0518 25.9903ZM28.0398 19.0162H26.2602V21.0162H28.0398V19.0162ZM27.0439 19.1869C27.0419 19.4557 27.0398 19.7325 27.0398 20.0162H29.0398C29.0398 19.7413 29.0418 19.4719 29.0438 19.2019L27.0439 19.1869ZM27.0401 17.6585C27.0516 18.1582 27.0479 18.6565 27.0439 19.1869L29.0438 19.2019C29.0478 18.6766 29.0518 18.1478 29.0395 17.6125L27.0401 17.6585ZM27.1351 17.7982C27.1252 17.7976 27.1064 17.7931 27.0856 17.7731C27.0746 17.7625 27.0631 17.7475 27.0542 17.7281C27.045 17.7079 27.0411 17.6885 27.0405 17.6739L29.0391 17.597C28.9993 16.5635 28.1633 15.8563 27.2548 15.8018L27.1351 17.7982ZM27.2674 17.6056C27.2607 17.7167 27.201 17.7767 27.1842 17.7896C27.1756 17.7962 27.171 17.7976 27.1703 17.7978C27.1694 17.7981 27.1648 17.7996 27.155 17.7992L27.2349 15.8008C26.394 15.7672 25.339 16.3524 25.271 17.4857L27.2674 17.6056ZM27.2552 19.2554C27.2495 18.6736 27.2445 18.1294 27.2682 17.5896L25.2701 17.5017C25.2436 18.1042 25.2497 18.7023 25.2553 19.275L27.2552 19.2554ZM27.2602 20.0162C27.2602 19.7587 27.2577 19.5036 27.2552 19.2554L25.2553 19.275C25.2578 19.5248 25.2602 19.7701 25.2602 20.0162H27.2602ZM14.6493 31.6043C14.6198 30.8025 14.8423 30.0314 15.1294 29.075L13.2139 28.5C12.9421 29.4054 12.607 30.4915 12.6507 31.6778L14.6493 31.6043ZM14.6479 31.8374C14.6488 31.7789 14.65 31.7106 14.65 31.641H12.65C12.65 31.6912 12.6492 31.7427 12.6481 31.804L14.6479 31.8374ZM14.6487 32.1301C14.6447 32.0491 14.6458 31.9627 14.6479 31.8374L12.6481 31.804C12.6462 31.9183 12.6433 32.0714 12.6512 32.23L14.6487 32.1301ZM19.4826 35.3905C17.134 36.1706 14.8046 34.5931 14.648 32.1169L12.652 32.2432C12.8908 36.0196 16.5115 38.4848 20.113 37.2885L19.4826 35.3905ZM21.6923 33.3394C21.2532 34.361 20.524 35.0435 19.4817 35.3908L20.1139 37.2882C21.7141 36.7551 22.8723 35.6588 23.5298 34.1291L21.6923 33.3394ZM24.7744 30.3575C23.2862 30.8872 22.2889 31.9657 21.6938 33.3358L23.5283 34.1326C23.9398 33.185 24.5603 32.5566 25.445 32.2418L24.7744 30.3575ZM29.0215 30.202C27.6508 29.8696 26.1973 29.8481 24.7726 30.3582L25.4468 32.2411C26.4309 31.8888 27.4761 31.8852 28.5501 32.1457L29.0215 30.202ZM32.4583 33.2548C31.8114 31.8051 30.7407 30.6287 29.0267 30.2033L28.5449 32.1444C29.5094 32.3838 30.1644 33.0222 30.6319 34.0699L32.4583 33.2548ZM36.694 35.4821C35.0566 35.8619 33.2019 34.9361 32.4597 33.2579L30.6306 34.0668C31.7399 36.575 34.523 38.0388 37.1459 37.4304L36.694 35.4821ZM39.5306 30.8911C40.054 32.8651 38.7289 35.0111 36.6945 35.482L37.1455 37.4305C40.2342 36.7156 42.2886 33.4894 41.4638 30.3786L39.5306 30.8911ZM37.6303 24.3095C38.3249 26.4813 38.9492 28.6738 39.5299 30.8885L41.4645 30.3812C40.8768 28.14 40.2428 25.9126 39.5352 23.7003L37.6303 24.3095ZM31.0611 22.3976C33.1619 20.4734 36.7354 21.5089 37.6302 24.3093L39.5353 23.7005C38.237 19.6374 32.9843 17.9239 29.7102 20.9228L31.0611 22.3976ZM29.9453 22.8219C30.2977 22.8219 30.7405 22.6913 31.0612 22.3975L29.7101 20.9229C29.7495 20.8868 29.7824 20.8662 29.8005 20.856C29.8196 20.8452 29.8338 20.8395 29.8428 20.8363C29.8519 20.833 29.8621 20.8301 29.875 20.8277C29.887 20.8254 29.9105 20.8219 29.9453 20.8219V22.8219ZM24.2781 22.8219C26.1687 22.8309 28.0594 22.8309 29.95 22.8219L29.9405 20.8219C28.0562 20.8309 26.1719 20.8309 24.2876 20.8219L24.2781 22.8219ZM23.1283 22.3862C23.4689 22.7004 23.9284 22.8219 24.2828 22.8219V20.8219C24.323 20.8219 24.3436 20.8281 24.3552 20.8321C24.3635 20.835 24.3777 20.8406 24.397 20.8514C24.4157 20.8619 24.4473 20.8819 24.4846 20.9162L23.1283 22.3862ZM16.4716 24.4607C17.3094 21.5448 20.9708 20.4334 23.1354 22.3926L24.4775 20.9098C21.1235 17.8741 15.7609 19.6914 14.5494 23.9085L16.4716 24.4607ZM16.1788 25.4574C16.276 25.1274 16.3734 24.7965 16.4703 24.4655L14.5508 23.9037C14.4544 24.233 14.3574 24.5624 14.2602 24.8926L16.1788 25.4574ZM15.3232 28.4152C15.5974 27.4327 15.8869 26.449 16.1788 25.4574L14.2602 24.8927C13.969 25.8819 13.6754 26.8792 13.3968 27.8776L15.3232 28.4152ZM15.1294 29.075C15.193 28.8631 15.2596 28.6413 15.3227 28.4172L13.3974 27.8755C13.3398 28.0801 13.2783 28.2853 13.2139 28.5L15.1294 29.075ZM31.9527 26.1275C31.834 26.2461 31.7296 26.3473 31.6291 26.4446L33.0206 27.8812C33.1207 27.7842 33.2355 27.6731 33.3666 27.542L31.9527 26.1275ZM31.7435 27.367C31.8314 27.4406 31.9122 27.5084 31.9955 27.5823L33.3238 26.0872C33.2156 25.9911 33.1134 25.9055 33.0277 25.8337L31.7435 27.367ZM31.3146 26.985C31.4602 27.1306 31.6176 27.2615 31.7435 27.367L33.0277 25.8337C32.8872 25.7161 32.8005 25.6425 32.7284 25.5705L31.3146 26.985ZM31.2157 24.187C30.8391 24.5634 30.621 25.0692 30.6574 25.6244C30.6926 26.1622 30.9574 26.628 31.3146 26.9851L32.7284 25.5705C32.6272 25.4693 32.6494 25.4366 32.6531 25.4938C32.6549 25.5215 32.6502 25.5525 32.6395 25.5793C32.6292 25.605 32.6199 25.6112 32.6296 25.6016L31.2157 24.187ZM34.0137 24.3038C33.6629 23.9532 33.2042 23.6843 32.6715 23.6395C32.1157 23.5928 31.6009 23.802 31.2157 24.187L32.6296 25.6016C32.6361 25.595 32.6258 25.6072 32.5954 25.6189C32.564 25.6309 32.5307 25.6347 32.504 25.6325C32.4521 25.6281 32.4923 25.6108 32.5998 25.7184L34.0137 24.3038ZM34.5066 24.8223C34.3357 24.6381 34.1788 24.4688 34.0137 24.3038L32.5998 25.7184C32.7334 25.8519 32.864 25.9924 33.0405 26.1826L34.5066 24.8223ZM34.6497 24.9763C34.5998 24.9227 34.5525 24.8718 34.5066 24.8223L33.0405 26.1826C33.0863 26.2319 33.1348 26.2843 33.1862 26.3395L34.6497 24.9763ZM33.3719 24.7661C33.3054 24.8418 33.2417 24.9145 33.1748 24.9888L34.6611 26.327C34.738 26.2416 34.8102 26.1593 34.8755 26.0848L33.3719 24.7661ZM33.8907 24.2087C33.6961 24.3954 33.523 24.5938 33.3719 24.7661L34.8755 26.0848C35.0374 25.9003 35.1538 25.7685 35.2754 25.6518L33.8907 24.2087ZM36.5663 24.1691C36.2028 23.8149 35.7237 23.6167 35.2128 23.632C34.7075 23.647 34.2482 23.8673 33.8924 24.2071L35.2738 25.6534C35.2987 25.6296 35.3127 25.6236 35.3115 25.6242C35.3098 25.6249 35.2963 25.6304 35.2724 25.6311C35.2481 25.6318 35.2228 25.6273 35.2007 25.6184C35.1788 25.6096 35.1693 25.6004 35.1704 25.6015L36.5663 24.1691ZM36.5639 26.8973C36.9098 26.5358 37.1346 26.0657 37.1446 25.5481C37.1547 25.0232 36.9412 24.5349 36.5667 24.1696L35.17 25.601C35.1749 25.6058 35.1669 25.5994 35.1582 25.5788C35.1494 25.558 35.1445 25.5334 35.1449 25.5094C35.1452 25.4982 35.1465 25.4891 35.148 25.4825C35.1495 25.4759 35.1509 25.4727 35.1509 25.4728C35.1508 25.4729 35.1491 25.4767 35.1443 25.4838C35.1395 25.4909 35.1315 25.5014 35.1189 25.5145L36.5639 26.8973ZM35.9827 27.4329C36.1721 27.2689 36.3743 27.095 36.5632 26.898L35.1196 25.5138C35.0068 25.6314 34.8785 25.7435 34.6739 25.9206L35.9827 27.4329ZM35.7568 27.6297C35.8354 27.5604 35.9094 27.4963 35.9827 27.4329L34.6739 25.9206C34.6013 25.9835 34.5205 26.0533 34.434 26.1297L35.7568 27.6297ZM36.0751 26.4153C35.9726 26.3254 35.8775 26.2419 35.7784 26.1492L34.4124 27.6101C34.5383 27.7278 34.6565 27.8314 34.7568 27.9193L36.0751 26.4153ZM36.5536 26.8607C36.3902 26.6906 36.219 26.5413 36.0751 26.4153L34.7568 27.9193C34.9123 28.0556 35.0174 28.1486 35.1112 28.2462L36.5536 26.8607ZM36.5665 29.59C36.9375 29.2283 37.1502 28.7418 37.1401 28.218C37.1301 27.6999 36.905 27.2275 36.5546 26.8617L35.1103 28.2452C35.1378 28.274 35.1456 28.2912 35.146 28.292C35.1462 28.2924 35.1409 28.2801 35.1404 28.2567C35.14 28.2329 35.1448 28.2079 35.154 28.1862C35.163 28.1648 35.1721 28.1562 35.1702 28.1581L36.5665 29.59ZM33.8492 29.5184C34.1992 29.8683 34.6593 30.1117 35.1817 30.1347C35.7128 30.1582 36.1997 29.948 36.5667 29.5898L35.17 28.1583C35.1614 28.1667 35.1665 28.159 35.1887 28.1501C35.2117 28.1409 35.2405 28.1354 35.2698 28.1367C35.2834 28.1373 35.2945 28.1392 35.3026 28.1413C35.3106 28.1434 35.3145 28.1452 35.3142 28.1451C35.3137 28.1449 35.2949 28.1357 35.2631 28.1039L33.8492 29.5184ZM33.387 28.9829C33.5178 29.1441 33.6666 29.3284 33.8343 29.5032L35.2779 28.1191C35.1774 28.0143 35.0808 27.8961 34.9397 27.7224L33.387 28.9829ZM33.1628 28.7106C33.241 28.8032 33.3127 28.8915 33.387 28.9829L34.9397 27.7224C34.8667 27.6324 34.7834 27.5298 34.6911 27.4205L33.1628 28.7106ZM34.3828 29.0462C34.4683 28.9524 34.5556 28.8566 34.655 28.7511L33.1989 27.38C33.0869 27.4989 32.9895 27.6059 32.9045 27.6991L34.3828 29.0462ZM33.9266 29.5243C34.0919 29.366 34.2406 29.2022 34.3828 29.0462L32.9045 27.6991C32.7533 27.865 32.6507 27.977 32.5431 28.08L33.9266 29.5243ZM31.2153 29.5898C31.5848 29.9503 32.0735 30.1586 32.6079 30.1298C33.1268 30.1018 33.5789 29.8574 33.9266 29.5243L32.5431 28.08C32.4594 28.1603 32.4397 28.1359 32.5002 28.1327C32.5295 28.1311 32.5608 28.1362 32.5876 28.1469C32.6134 28.1571 32.6204 28.1665 32.612 28.1583L31.2153 29.5898ZM31.2461 26.8251C30.9004 27.1853 30.658 27.6533 30.638 28.1815C30.6174 28.7227 30.8359 29.2194 31.2151 29.5896L32.6122 28.1585C32.6043 28.1508 32.6129 28.1568 32.6226 28.18C32.6326 28.2039 32.6375 28.2317 32.6365 28.2573C32.6345 28.3116 32.6123 28.2899 32.6891 28.2099L31.2461 26.8251ZM31.6291 26.4446C31.5011 26.5686 31.3724 26.6931 31.2451 26.8261L32.69 28.2089C32.7865 28.1081 32.8874 28.0103 33.0206 27.8812L31.6291 26.4446ZM19.9506 24.9903C19.8415 24.9903 19.7379 24.9893 19.6328 24.9882L19.6131 26.9881C19.717 26.9892 19.8301 26.9903 19.9506 26.9903V24.9903ZM18.9494 25.7381C18.95 25.8199 18.9506 25.9023 18.9506 25.9903H20.9506C20.9506 25.8941 20.9499 25.8047 20.9494 25.7236L18.9494 25.7381ZM18.9618 25.0433C18.9457 25.2853 18.9478 25.5166 18.9494 25.7381L20.9494 25.7236C20.9477 25.4881 20.947 25.3318 20.9574 25.1764L18.9618 25.0433ZM20.8762 23.1937C19.761 23.1738 18.994 24.0598 18.9601 25.0766L20.959 25.1432C20.9604 25.1007 20.9723 25.1144 20.9413 25.1461C20.9269 25.1608 20.9076 25.1742 20.8855 25.1832C20.863 25.1924 20.8462 25.1935 20.8405 25.1934L20.8762 23.1937ZM22.7477 25.0951C22.7143 24.0777 21.9595 23.1936 20.8584 23.1936V25.1936C20.8503 25.1936 20.8331 25.1917 20.8118 25.1826C20.7907 25.1736 20.7731 25.1608 20.7604 25.1476C20.7327 25.1187 20.7471 25.1103 20.7487 25.1607L22.7477 25.0951ZM22.7503 25.6813C22.7522 25.4943 22.7544 25.2962 22.7476 25.0945L20.7487 25.1612C20.7538 25.3117 20.7524 25.4657 20.7504 25.6609L22.7503 25.6813ZM22.7482 25.9903C22.7482 25.884 22.7492 25.7833 22.7503 25.6813L20.7504 25.6609C20.7493 25.7617 20.7482 25.8723 20.7482 25.9903H22.7482ZM22.0414 24.9883C21.9419 24.9893 21.8462 24.9903 21.7482 24.9903V26.9903C21.8581 26.9903 21.964 26.9892 22.062 26.9882L22.0414 24.9883ZM22.6433 24.9908C22.4345 24.9841 22.2293 24.9864 22.0414 24.9883L22.062 26.9882C22.2574 26.9862 22.4198 26.9847 22.5788 26.9898L22.6433 24.9908ZM24.5368 26.8797C24.5368 25.7837 23.6579 25.0246 22.6443 24.9909L22.5777 26.9897C22.6202 26.9912 22.6098 27.0031 22.5816 26.9759C22.5687 26.9635 22.5563 26.9463 22.5476 26.9258C22.5387 26.9049 22.5368 26.8879 22.5368 26.8797H24.5368ZM22.6443 28.7775C23.6647 28.7435 24.5368 27.9783 24.5368 26.8797H22.5368C22.5368 26.8761 22.5378 26.8621 22.5459 26.8427C22.554 26.8236 22.5659 26.8066 22.5791 26.7938C22.6082 26.7655 22.62 26.7772 22.5777 26.7786L22.6443 28.7775ZM22.0634 28.7802C22.2513 28.7821 22.4442 28.7842 22.6443 28.7775L22.5777 26.7786C22.4284 26.7836 22.2792 26.7822 22.0836 26.7803L22.0634 28.7802ZM21.7392 28.778C21.8536 28.778 21.959 28.7791 22.0634 28.7802L22.0836 26.7803C21.98 26.7792 21.8651 26.778 21.7392 26.778V28.778ZM22.7412 28.0609C22.7402 27.9656 22.7392 27.8734 22.7392 27.778H20.7392C20.7392 27.8859 20.7403 27.9886 20.7413 28.0826L22.7412 28.0609ZM22.7386 28.63C22.7454 28.4323 22.7432 28.2382 22.7412 28.0609L20.7413 28.0826C20.7434 28.2681 20.7448 28.4164 20.7398 28.5611L22.7386 28.63ZM20.8756 30.5746C21.3927 30.5657 21.8806 30.3618 22.2336 29.9705C22.5787 29.5877 22.7316 29.0977 22.7391 28.611L20.7393 28.5802C20.7378 28.6774 20.711 28.6724 20.7483 28.6311C20.7658 28.6116 20.789 28.5948 20.8132 28.5842C20.8368 28.5739 20.8489 28.5748 20.8411 28.5749L20.8756 30.5746ZM18.9507 28.5923C18.9581 29.0928 19.1157 29.5958 19.4718 29.9843C19.8371 30.3828 20.3427 30.5837 20.8753 30.5746L20.8414 28.5749C20.8363 28.575 20.8511 28.5741 20.8774 28.585C20.9042 28.5962 20.9285 28.6137 20.9462 28.633C20.9832 28.6734 20.9521 28.6733 20.9505 28.5629L18.9507 28.5923ZM18.9506 27.778V28.5776H20.9506V27.778H18.9506ZM19.6322 28.7801C19.7372 28.7791 19.8411 28.778 19.9506 28.778V26.778C19.8297 26.778 19.7163 26.7792 19.6123 26.7802L19.6322 28.7801ZM19.0286 28.7775C19.2354 28.7842 19.4389 28.782 19.6322 28.7801L19.6124 26.7802C19.4112 26.7822 19.2504 26.7836 19.093 26.7786L19.0286 28.7775ZM17.1532 26.9255C17.1732 27.988 18.0274 28.726 19.0091 28.7767L19.1124 26.7794C19.076 26.7775 19.0845 26.7674 19.109 26.791C19.1203 26.802 19.1321 26.8177 19.1408 26.8374C19.1496 26.8576 19.1526 26.8758 19.1528 26.8878L17.1532 26.9255ZM19.0019 24.9915C17.9723 25.043 17.1138 25.8479 17.1536 26.943L19.1523 26.8703C19.1527 26.88 19.1511 26.8977 19.1429 26.9189C19.1349 26.9397 19.123 26.9575 19.1101 26.9707C19.0818 26.9998 19.0672 26.9908 19.1017 26.9891L19.0019 24.9915ZM19.6328 24.9882C19.438 24.9863 19.2329 24.9842 19.0206 24.9908L19.083 26.9898C19.2474 26.9847 19.4113 26.9862 19.6131 26.9881L19.6328 24.9882Z" fill="#E60000" mask="url(#path-2-inside-1_288_4680)"/>
</g>
</g>
<defs>
<filter id="filter0_b_288_4680" x="1.646" y="4.79927" width="51" height="43.7927" filterUnits="userSpaceOnUse" color-interpolation-filters="sRGB">
<feFlood flood-opacity="0" result="BackgroundImageFix"/>
<feGaussianBlur in="BackgroundImageFix" stdDeviation="6"/>
<feComposite in2="SourceAlpha" operator="in" result="effect1_backgroundBlur_288_4680"/>
<feBlend mode="normal" in="SourceGraphic" in2="effect1_backgroundBlur_288_4680" result="shape"/>
</filter>
<clipPath id="clip0_288_4680">
<rect width="27" height="19.8" fill="white" transform="translate(13.6499 16.8)"/>
</clipPath>
</defs>
</svg>
