<svg width="54" height="54" viewBox="0 0 54 54" fill="none" xmlns="http://www.w3.org/2000/svg">
<rect x="0.5" y="0.5" width="53" height="53" rx="9.5" fill="#141414"/>
<rect x="0.5" y="0.5" width="53" height="53" rx="9.5" stroke="#1F1F1F"/>
<g clip-path="url(#clip0_288_4670)">
<g filter="url(#filter0_b_288_4670)">
<mask id="path-2-inside-1_288_4670" fill="white">
<path fill-rule="evenodd" clip-rule="evenodd" d="M36.8524 16.65H27.0979H17.3525C16.3633 16.65 16.0886 16.9241 16.0886 17.8834V28.2075C16.0886 29.1577 16.3725 29.4409 17.3067 29.4409H36.8524C37.7866 29.4409 38.0705 29.1577 38.0705 28.2075V17.8834C38.0705 16.9332 37.7866 16.65 36.8524 16.65ZM14.5315 36.75H27.0338H39.6368C39.8566 36.75 40.0947 36.7409 40.3054 36.6678C40.7908 36.5033 40.9374 36.1013 40.6901 35.6536C39.82 34.064 38.9407 32.4834 38.0615 30.9029L38.0614 30.9027C37.8507 30.5373 37.5485 30.3545 37.1272 30.3545H17.0228C16.6015 30.3545 16.2992 30.5373 16.0977 30.9027L16.0976 30.9029C15.2184 32.4834 14.3391 34.064 13.4691 35.6536C13.2218 36.1013 13.3775 36.5033 13.8629 36.6678C14.0644 36.7409 14.3025 36.75 14.5315 36.75ZM27.6474 34.9248C27.4551 34.9237 27.2627 34.9227 27.0704 34.9227C26.8784 34.9227 26.6864 34.9237 26.4941 34.9247C26.1084 34.9268 25.7213 34.9288 25.3302 34.9227C24.744 34.9136 24.341 34.5481 24.3318 34.0274C24.3227 33.4883 24.7348 33.1046 25.3485 33.1046C26.5025 33.0954 27.6657 33.0954 28.8198 33.1046C29.406 33.1137 29.809 33.4792 29.8181 33.9999C29.8273 34.5299 29.4151 34.9136 28.8015 34.9227C28.4168 34.9288 28.0321 34.9268 27.6474 34.9248Z"/>
</mask>
<path fill-rule="evenodd" clip-rule="evenodd" d="M36.8524 16.65H27.0979H17.3525C16.3633 16.65 16.0886 16.9241 16.0886 17.8834V28.2075C16.0886 29.1577 16.3725 29.4409 17.3067 29.4409H36.8524C37.7866 29.4409 38.0705 29.1577 38.0705 28.2075V17.8834C38.0705 16.9332 37.7866 16.65 36.8524 16.65ZM14.5315 36.75H27.0338H39.6368C39.8566 36.75 40.0947 36.7409 40.3054 36.6678C40.7908 36.5033 40.9374 36.1013 40.6901 35.6536C39.82 34.064 38.9407 32.4834 38.0615 30.9029L38.0614 30.9027C37.8507 30.5373 37.5485 30.3545 37.1272 30.3545H17.0228C16.6015 30.3545 16.2992 30.5373 16.0977 30.9027L16.0976 30.9029C15.2184 32.4834 14.3391 34.064 13.4691 35.6536C13.2218 36.1013 13.3775 36.5033 13.8629 36.6678C14.0644 36.7409 14.3025 36.75 14.5315 36.75ZM27.6474 34.9248C27.4551 34.9237 27.2627 34.9227 27.0704 34.9227C26.8784 34.9227 26.6864 34.9237 26.4941 34.9247C26.1084 34.9268 25.7213 34.9288 25.3302 34.9227C24.744 34.9136 24.341 34.5481 24.3318 34.0274C24.3227 33.4883 24.7348 33.1046 25.3485 33.1046C26.5025 33.0954 27.6657 33.0954 28.8198 33.1046C29.406 33.1137 29.809 33.4792 29.8181 33.9999C29.8273 34.5299 29.4151 34.9136 28.8015 34.9227C28.4168 34.9288 28.0321 34.9268 27.6474 34.9248Z" fill="#E60000"/>
<path d="M40.3054 36.6678L39.9845 35.7206L39.9776 35.723L40.3054 36.6678ZM40.6901 35.6536L39.8129 36.1338L39.8147 36.1372L40.6901 35.6536ZM38.0615 30.9029L37.1847 31.3837L37.1876 31.389L38.0615 30.9029ZM38.0614 30.9027L38.9382 30.4219L38.9331 30.4125L38.9278 30.4033L38.0614 30.9027ZM16.0977 30.9027L16.9716 31.389L16.9734 31.3856L16.0977 30.9027ZM16.0976 30.9029L15.2238 30.4167L15.2237 30.4168L16.0976 30.9029ZM13.4691 35.6536L14.3444 36.1372L14.3463 36.1338L13.4691 35.6536ZM13.8629 36.6678L14.2039 35.7277L14.1939 35.7241L14.1838 35.7206L13.8629 36.6678ZM27.6474 34.9248L27.6527 33.9248H27.6527L27.6474 34.9248ZM26.4941 34.9247L26.4888 33.9248H26.4888L26.4941 34.9247ZM25.3302 34.9227L25.3146 35.9226H25.3146L25.3302 34.9227ZM24.3318 34.0274L23.332 34.0443L23.332 34.0449L24.3318 34.0274ZM25.3485 33.1046V34.1046L25.3564 34.1046L25.3485 33.1046ZM28.8198 33.1046L28.8354 32.1047L28.8277 32.1046L28.8198 33.1046ZM29.8181 33.9999L30.818 33.9827L30.818 33.9824L29.8181 33.9999ZM28.8015 34.9227L28.7866 33.9228L28.7857 33.9228L28.8015 34.9227ZM27.0979 17.65H36.8524V15.65H27.0979V17.65ZM17.3525 17.65H27.0979V15.65H17.3525V17.65ZM17.0886 17.8834C17.0886 17.681 17.1042 17.5788 17.1156 17.5346C17.1239 17.5022 17.1154 17.5566 17.0494 17.6213C16.9847 17.6847 16.9346 17.6892 16.9773 17.6787C17.0299 17.6657 17.1415 17.65 17.3525 17.65V15.65C16.8426 15.65 16.1516 15.701 15.6498 16.1926C15.1409 16.6912 15.0886 17.3832 15.0886 17.8834H17.0886ZM17.0886 28.2075V17.8834H15.0886V28.2075H17.0886ZM17.3067 28.4409C17.1143 28.4409 17.0169 28.4252 16.9757 28.4145C16.9455 28.4065 16.9963 28.4147 17.0578 28.4768C17.1187 28.5383 17.125 28.5871 17.116 28.5519C17.1043 28.5066 17.0886 28.4045 17.0886 28.2075H15.0886C15.0886 28.7137 15.1472 29.3898 15.6368 29.8842C16.1296 30.3818 16.806 30.4409 17.3067 30.4409V28.4409ZM36.8524 28.4409H17.3067V30.4409H36.8524V28.4409ZM37.0705 28.2075C37.0705 28.4045 37.0548 28.5066 37.0431 28.5519C37.0341 28.5871 37.0404 28.5383 37.1013 28.4768C37.1628 28.4147 37.2136 28.4065 37.1834 28.4145C37.1423 28.4252 37.0449 28.4409 36.8524 28.4409V30.4409C37.3531 30.4409 38.0295 30.3818 38.5223 29.8842C39.0119 29.3898 39.0705 28.7137 39.0705 28.2075H37.0705ZM37.0705 17.8834V28.2075H39.0705V17.8834H37.0705ZM36.8524 17.65C37.0449 17.65 37.1423 17.6657 37.1834 17.6764C37.2136 17.6844 37.1628 17.6762 37.1013 17.6141C37.0404 17.5526 37.0341 17.5038 37.0431 17.539C37.0548 17.5843 37.0705 17.6864 37.0705 17.8834H39.0705C39.0705 17.3772 39.0119 16.7011 38.5223 16.2067C38.0295 15.7091 37.3531 15.65 36.8524 15.65V17.65ZM27.0338 35.75H14.5315V37.75H27.0338V35.75ZM39.6368 35.75H27.0338V37.75H39.6368V35.75ZM39.9776 35.723C39.9405 35.7359 39.8527 35.75 39.6368 35.75V37.75C39.8605 37.75 40.2489 37.7458 40.6332 37.6125L39.9776 35.723ZM39.8147 36.1372C39.8397 36.1824 39.7725 36.0856 39.8362 35.9157C39.9018 35.7408 40.0237 35.7074 39.9845 35.7206L40.6262 37.6149C41.0725 37.4637 41.5104 37.147 41.7088 36.6181C41.9053 36.0942 41.7877 35.5726 41.5654 35.1701L39.8147 36.1372ZM37.1876 31.389C38.0671 32.9701 38.9447 34.5476 39.8129 36.1338L41.5673 35.1735C40.6953 33.5803 39.8143 31.9968 38.9354 30.4168L37.1876 31.389ZM37.1846 31.3836L37.1847 31.3837L38.9383 30.4221L38.9382 30.4219L37.1846 31.3836ZM37.1272 31.3545C37.1601 31.3545 37.1753 31.3581 37.1775 31.3586C37.1787 31.3589 37.1729 31.3574 37.1644 31.3524C37.1561 31.3475 37.1539 31.3443 37.1579 31.3485C37.1625 31.3535 37.1759 31.369 37.195 31.4021L38.9278 30.4033C38.754 30.1018 38.5126 29.8261 38.1821 29.6307C37.8498 29.4343 37.4872 29.3545 37.1272 29.3545V31.3545ZM17.0228 31.3545H37.1272V29.3545H17.0228V31.3545ZM16.9734 31.3856C16.9898 31.3558 17.0008 31.3434 17.0028 31.3412C17.0042 31.3397 16.9997 31.3447 16.9895 31.3508C16.9793 31.3569 16.9722 31.3587 16.973 31.3585C16.9747 31.3581 16.9898 31.3545 17.0228 31.3545V29.3545C16.6636 29.3545 16.2994 29.434 15.9662 29.6324C15.6336 29.8304 15.3923 30.111 15.222 30.4199L16.9734 31.3856ZM16.9715 31.3891L16.9716 31.389L15.2239 30.4165L15.2238 30.4167L16.9715 31.3891ZM14.3463 36.1338C15.2144 34.5476 16.092 32.9701 16.9715 31.389L15.2237 30.4168C14.3448 31.9968 13.4639 33.5803 12.5919 35.1735L14.3463 36.1338ZM14.1838 35.7206C14.1414 35.7063 14.2578 35.736 14.3235 35.9051C14.3891 36.0744 14.3233 36.1754 14.3444 36.1372L12.5937 35.1701C12.3675 35.5796 12.2559 36.1054 12.4589 36.6287C12.6619 37.1518 13.099 37.4648 13.542 37.6149L14.1838 35.7206ZM14.5315 35.75C14.4265 35.75 14.3497 35.7476 14.2871 35.7413C14.2244 35.735 14.2019 35.727 14.2039 35.7277L13.5219 37.6078C13.9067 37.7474 14.3066 37.75 14.5315 37.75V35.75ZM27.0704 35.9227C27.2597 35.9227 27.4494 35.9237 27.6422 35.9247L27.6527 33.9248C27.4608 33.9238 27.2658 33.9227 27.0704 33.9227V35.9227ZM26.4993 35.9247C26.6921 35.9237 26.8815 35.9227 27.0704 35.9227V33.9227C26.8753 33.9227 26.6807 33.9237 26.4888 33.9248L26.4993 35.9247ZM25.3146 35.9226C25.7178 35.9289 26.1153 35.9268 26.4993 35.9247L26.4888 33.9248C26.1014 33.9268 25.7247 33.9288 25.3457 33.9228L25.3146 35.9226ZM23.332 34.0449C23.3413 34.573 23.5573 35.0608 23.9458 35.4103C24.3271 35.7534 24.8181 35.9149 25.3146 35.9226L25.3457 33.9228C25.256 33.9214 25.2525 33.8956 25.2835 33.9235C25.2979 33.9365 25.3121 33.9551 25.3218 33.9768C25.3315 33.9983 25.3317 34.0117 25.3317 34.0098L23.332 34.0449ZM25.3485 32.1046C24.8342 32.1046 24.3237 32.2674 23.9318 32.6258C23.532 32.9914 23.3227 33.5015 23.332 34.0443L25.3317 34.0104C25.3316 34.0064 25.3322 34.0198 25.3225 34.043C25.3127 34.0663 25.2975 34.0871 25.2814 34.1018C25.2466 34.1336 25.2491 34.1046 25.3485 34.1046V32.1046ZM28.8277 32.1046C27.6684 32.0954 26.4999 32.0954 25.3406 32.1046L25.3564 34.1046C26.5052 34.0955 27.6631 34.0955 28.8119 34.1046L28.8277 32.1046ZM30.818 33.9824C30.8087 33.4543 30.5927 32.9665 30.2042 32.617C29.8229 32.2739 29.3318 32.1124 28.8354 32.1047L28.8042 34.1045C28.894 34.1059 28.8975 34.1317 28.8665 34.1038C28.8521 34.0908 28.8378 34.0722 28.8281 34.0505C28.8185 34.029 28.8183 34.0156 28.8183 34.0175L30.818 33.9824ZM28.8164 35.9226C29.3266 35.915 29.8308 35.7489 30.2182 35.3946C30.6139 35.0328 30.8274 34.5268 30.818 33.9827L28.8183 34.0172C28.8183 34.0175 28.8182 34.0132 28.8197 34.0053C28.8212 33.9974 28.824 33.9873 28.8289 33.9758C28.8392 33.9515 28.8543 33.9317 28.8686 33.9186C28.8988 33.891 28.8901 33.9213 28.7866 33.9228L28.8164 35.9226ZM27.6421 35.9247C28.0251 35.9268 28.4203 35.9289 28.8173 35.9226L28.7857 33.9228C28.4133 33.9287 28.0391 33.9268 27.6527 33.9248L27.6421 35.9247Z" fill="#E60000" mask="url(#path-2-inside-1_288_4670)"/>
</g>
</g>
<defs>
<filter id="filter0_b_288_4670" x="1.35303" y="4.64999" width="51.4553" height="44.1" filterUnits="userSpaceOnUse" color-interpolation-filters="sRGB">
<feFlood flood-opacity="0" result="BackgroundImageFix"/>
<feGaussianBlur in="BackgroundImageFix" stdDeviation="6"/>
<feComposite in2="SourceAlpha" operator="in" result="effect1_backgroundBlur_288_4670"/>
<feBlend mode="normal" in="SourceGraphic" in2="effect1_backgroundBlur_288_4670" result="shape"/>
</filter>
<clipPath id="clip0_288_4670">
<rect width="27.45" height="20.1" fill="white" transform="translate(13.3501 16.65)"/>
</clipPath>
</defs>
</svg>
