<svg width="54" height="54" viewBox="0 0 54 54" fill="none" xmlns="http://www.w3.org/2000/svg">
<rect x="0.5" y="0.5" width="53" height="53" rx="9.5" fill="#141414"/>
<rect x="0.5" y="0.5" width="53" height="53" rx="9.5" stroke="#1F1F1F"/>
<g clip-path="url(#clip0_288_4642)">
<g filter="url(#filter0_b_288_4642)">
<path d="M19.8001 26.7C19.8001 23.2175 19.7917 19.7266 19.8001 16.244C19.8001 14.8106 20.5253 13.765 21.7986 13.3518C22.1021 13.2506 22.431 13.2084 22.7514 13.2084C25.6943 13.2 28.6371 13.2 31.5715 13.2084C33.2833 13.2169 34.5312 14.4564 34.5312 16.1597C34.5397 23.1922 34.5397 30.2163 34.5312 37.2487C34.5312 38.952 33.2833 40.2 31.58 40.2C28.6708 40.2084 25.7617 40.2084 22.8526 40.2C21.0312 40.2 19.817 39.0026 19.8086 37.1644C19.7917 33.6735 19.8001 30.191 19.8001 26.7ZM27.1699 15.6538C26.5965 15.6538 26.0231 15.6538 25.4413 15.6538C24.986 15.6622 24.733 15.873 24.7246 16.244C24.7161 16.6235 24.9522 16.8849 25.3907 16.8849C26.5712 16.9018 27.7433 16.9018 28.9238 16.8849C29.3454 16.8765 29.6321 16.5898 29.6153 16.244C29.5984 15.8899 29.3201 15.6538 28.8901 15.6538C28.3167 15.6538 27.7433 15.6538 27.1699 15.6538ZM27.1699 35.3093C26.4785 35.3093 25.9304 35.8574 25.9388 36.532C25.9472 37.2066 26.5122 37.7547 27.1868 37.7462C27.8445 37.7378 28.3757 37.1981 28.3757 36.532C28.3841 35.8321 27.8613 35.3093 27.1699 35.3093Z" fill="#E60000"/>
<path d="M25.4413 15.1537V15.1538H25.4447H25.4481H25.4515H25.4549H25.4583H25.4617H25.4652H25.4686H25.472H25.4754H25.4788H25.4822H25.4856H25.489H25.4924H25.4958H25.4992H25.5026H25.506H25.5094H25.5128H25.5163H25.5197H25.5231H25.5265H25.5299H25.5333H25.5367H25.5401H25.5435H25.5469H25.5503H25.5537H25.5571H25.5605H25.5639H25.5673H25.5707H25.5741H25.5775H25.5809H25.5843H25.5877H25.5911H25.5945H25.5979H25.6013H25.6047H25.6081H25.6115H25.6149H25.6183H25.6217H25.6251H25.6285H25.6319H25.6353H25.6387H25.6421H25.6455H25.6489H25.6523H25.6557H25.6591H25.6625H25.6659H25.6693H25.6727H25.6761H25.6795H25.6829H25.6863H25.6897H25.6931H25.6965H25.6999H25.7033H25.7067H25.71H25.7134H25.7168H25.7202H25.7236H25.727H25.7304H25.7338H25.7372H25.7406H25.744H25.7474H25.7508H25.7542H25.7576H25.761H25.7643H25.7677H25.7711H25.7745H25.7779H25.7813H25.7847H25.7881H25.7915H25.7949H25.7983H25.8017H25.805H25.8084H25.8118H25.8152H25.8186H25.822H25.8254H25.8288H25.8322H25.8356H25.8389H25.8423H25.8457H25.8491H25.8525H25.8559H25.8593H25.8627H25.8661H25.8694H25.8728H25.8762H25.8796H25.883H25.8864H25.8898H25.8932H25.8965H25.8999H25.9033H25.9067H25.9101H25.9135H25.9169H25.9202H25.9236H25.927H25.9304H25.9338H25.9372H25.9406H25.9439H25.9473H25.9507H25.9541H25.9575H25.9609H25.9642H25.9676H25.971H25.9744H25.9778H25.9812H25.9845H25.9879H25.9913H25.9947H25.9981H26.0015H26.0048H26.0082H26.0116H26.015H26.0184H26.0217H26.0251H26.0285H26.0319H26.0353H26.0387H26.042H26.0454H26.0488H26.0522H26.0556H26.0589H26.0623H26.0657H26.0691H26.0725H26.0758H26.0792H26.0826H26.086H26.0894H26.0927H26.0961H26.0995H26.1029H26.1063H26.1096H26.113H26.1164H26.1198H26.1231H26.1265H26.1299H26.1333H26.1367H26.14H26.1434H26.1468H26.1502H26.1535H26.1569H26.1603H26.1637H26.167H26.1704H26.1738H26.1772H26.1806H26.1839H26.1873H26.1907H26.1941H26.1974H26.2008H26.2042H26.2076H26.2109H26.2143H26.2177H26.2211H26.2244H26.2278H26.2312H26.2346H26.2379H26.2413H26.2447H26.248H26.2514H26.2548H26.2582H26.2615H26.2649H26.2683H26.2717H26.275H26.2784H26.2818H26.2852H26.2885H26.2919H26.2953H26.2986H26.302H26.3054H26.3088H26.3121H26.3155H26.3189H26.3222H26.3256H26.329H26.3324H26.3357H26.3391H26.3425H26.3458H26.3492H26.3526H26.356H26.3593H26.3627H26.3661H26.3694H26.3728H26.3762H26.3796H26.3829H26.3863H26.3897H26.393H26.3964H26.3998H26.4031H26.4065H26.4099H26.4133H26.4166H26.42H26.4234H26.4267H26.4301H26.4335H26.4368H26.4402H26.4436H26.4469H26.4503H26.4537H26.457H26.4604H26.4638H26.4671H26.4705H26.4739H26.4773H26.4806H26.484H26.4874H26.4907H26.4941H26.4975H26.5008H26.5042H26.5076H26.5109H26.5143H26.5177H26.521H26.5244H26.5278H26.5311H26.5345H26.5379H26.5412H26.5446H26.548H26.5513H26.5547H26.5581H26.5614H26.5648H26.5682H26.5715H26.5749H26.5783H26.5816H26.585H26.5883H26.5917H26.5951H26.5984H26.6018H26.6052H26.6085H26.6119H26.6153H26.6186H26.622H26.6254H26.6287H26.6321H26.6355H26.6388H26.6422H26.6455H26.6489H26.6523H26.6556H26.659H26.6624H26.6657H26.6691H26.6725H26.6758H26.6792H26.6826H26.6859H26.6893H26.6926H26.696H26.6994H26.7027H26.7061H26.7095H26.7128H26.7162H26.7196H26.7229H26.7263H26.7296H26.733H26.7364H26.7397H26.7431H26.7465H26.7498H26.7532H26.7565H26.7599H26.7633H26.7666H26.77H26.7734H26.7767H26.7801H26.7834H26.7868H26.7902H26.7935H26.7969H26.8003H26.8036H26.807H26.8103H26.8137H26.8171H26.8204H26.8238H26.8271H26.8305H26.8339H26.8372H26.8406H26.844H26.8473H26.8507H26.854H26.8574H26.8608H26.8641H26.8675H26.8708H26.8742H26.8776H26.8809H26.8843H26.8877H26.891H26.8944H26.8977H26.9011H26.9045H26.9078H26.9112H26.9145H26.9179H26.9213H26.9246H26.928H26.9313H26.9347H26.9381H26.9414H26.9448H26.9481H26.9515H26.9549H26.9582H26.9616H26.9649H26.9683H26.9717H26.975H26.9784H26.9817H26.9851H26.9885H26.9918H26.9952H26.9985H27.0019H27.0053H27.0086H27.012H27.0154H27.0187H27.0221H27.0254H27.0288H27.0322H27.0355H27.0389H27.0422H27.0456H27.049H27.0523H27.0557H27.059H27.0624H27.0658H27.0691H27.0725H27.0758H27.0792H27.0826H27.0859H27.0893H27.0926H27.096H27.0993H27.1027H27.1061H27.1094H27.1128H27.1161H27.1195H27.1229H27.1262H27.1296H27.1329H27.1363H27.1397H27.143H27.1464H27.1497H27.1531H27.1565H27.1598H27.1632H27.1665H27.1699H27.1733H27.1766H27.18H27.1833H27.1867H27.1901H27.1934H27.1968H27.2001H27.2035H27.2069H27.2102H27.2136H27.2169H27.2203H27.2237H27.227H27.2304H27.2337H27.2371H27.2405H27.2438H27.2472H27.2505H27.2539H27.2573H27.2606H27.264H27.2673H27.2707H27.2741H27.2774H27.2808H27.2841H27.2875H27.2909H27.2942H27.2976H27.3009H27.3043H27.3077H27.311H27.3144H27.3177H27.3211H27.3245H27.3278H27.3312H27.3345H27.3379H27.3412H27.3446H27.348H27.3513H27.3547H27.358H27.3614H27.3648H27.3681H27.3715H27.3748H27.3782H27.3816H27.3849H27.3883H27.3916H27.395H27.3984H27.4017H27.4051H27.4084H27.4118H27.4152H27.4185H27.4219H27.4252H27.4286H27.432H27.4353H27.4387H27.442H27.4454H27.4488H27.4521H27.4555H27.4588H27.4622H27.4656H27.4689H27.4723H27.4756H27.479H27.4824H27.4857H27.4891H27.4924H27.4958H27.4992H27.5025H27.5059H27.5092H27.5126H27.516H27.5193H27.5227H27.526H27.5294H27.5328H27.5361H27.5395H27.5428H27.5462H27.5496H27.5529H27.5563H27.5596H27.563H27.5663H27.5697H27.5731H27.5764H27.5798H27.5831H27.5865H27.5899H27.5932H27.5966H27.5999H27.6033H27.6067H27.61H27.6134H27.6167H27.6201H27.6235H27.6268H27.6302H27.6335H27.6369H27.6403H27.6436H27.647H27.6503H27.6537H27.6571H27.6604H27.6638H27.6671H27.6705H27.6739H27.6772H27.6806H27.6839H27.6873H27.6907H27.694H27.6974H27.7007H27.7041H27.7075H27.7108H27.7142H27.7175H27.7209H27.7243H27.7276H27.731H27.7343H27.7377H27.7411H27.7444H27.7478H27.7511H27.7545H27.7579H27.7612H27.7646H27.7679H27.7713H27.7747H27.778H27.7814H27.7847H27.7881H27.7915H27.7948H27.7982H27.8015H27.8049H27.8082H27.8116H27.815H27.8183H27.8217H27.825H27.8284H27.8318H27.8351H27.8385H27.8418H27.8452H27.8486H27.8519H27.8553H27.8586H27.862H27.8654H27.8687H27.8721H27.8754H27.8788H27.8822H27.8855H27.8889H27.8922H27.8956H27.899H27.9023H27.9057H27.909H27.9124H27.9158H27.9191H27.9225H27.9258H27.9292H27.9326H27.9359H27.9393H27.9426H27.946H27.9494H27.9527H27.9561H27.9594H27.9628H27.9662H27.9695H27.9729H27.9762H27.9796H27.983H27.9863H27.9897H27.993H27.9964H27.9998H28.0031H28.0065H28.0098H28.0132H28.0166H28.0199H28.0233H28.0266H28.03H28.0334H28.0367H28.0401H28.0434H28.0468H28.0501H28.0535H28.0569H28.0602H28.0636H28.0669H28.0703H28.0737H28.077H28.0804H28.0837H28.0871H28.0905H28.0938H28.0972H28.1005H28.1039H28.1073H28.1106H28.114H28.1173H28.1207H28.1241H28.1274H28.1308H28.1341H28.1375H28.1409H28.1442H28.1476H28.1509H28.1543H28.1577H28.161H28.1644H28.1677H28.1711H28.1745H28.1778H28.1812H28.1845H28.1879H28.1913H28.1946H28.198H28.2013H28.2047H28.2081H28.2114H28.2148H28.2181H28.2215H28.2249H28.2282H28.2316H28.2349H28.2383H28.2417H28.245H28.2484H28.2517H28.2551H28.2585H28.2618H28.2652H28.2685H28.2719H28.2753H28.2786H28.282H28.2853H28.2887H28.292H28.2954H28.2988H28.3021H28.3055H28.3088H28.3122H28.3156H28.3189H28.3223H28.3256H28.329H28.3324H28.3357H28.3391H28.3424H28.3458H28.3492H28.3525H28.3559H28.3592H28.3626H28.366H28.3693H28.3727H28.376H28.3794H28.3828H28.3861H28.3895H28.3928H28.3962H28.3996H28.4029H28.4063H28.4096H28.413H28.4164H28.4197H28.4231H28.4264H28.4298H28.4332H28.4365H28.4399H28.4432H28.4466H28.45H28.4533H28.4567H28.46H28.4634H28.4668H28.4701H28.4735H28.4768H28.4802H28.4836H28.4869H28.4903H28.4936H28.497H28.5004H28.5037H28.5071H28.5104H28.5138H28.5171H28.5205H28.5239H28.5272H28.5306H28.5339H28.5373H28.5407H28.544H28.5474H28.5507H28.5541H28.5575H28.5608H28.5642H28.5675H28.5709H28.5743H28.5776H28.581H28.5843H28.5877H28.5911H28.5944H28.5978H28.6011H28.6045H28.6079H28.6112H28.6146H28.6179H28.6213H28.6247H28.628H28.6314H28.6347H28.6381H28.6415H28.6448H28.6482H28.6515H28.6549H28.6583H28.6616H28.665H28.6683H28.6717H28.6751H28.6784H28.6818H28.6851H28.6885H28.6919H28.6952H28.6986H28.7019H28.7053H28.7087H28.712H28.7154H28.7187H28.7221H28.7255H28.7288H28.7322H28.7355H28.7389H28.7423H28.7456H28.749H28.7523H28.7557H28.759H28.7624H28.7658H28.7691H28.7725H28.7758H28.7792H28.7826H28.7859H28.7893H28.7926H28.796H28.7994H28.8027H28.8061H28.8094H28.8128H28.8162H28.8195H28.8229H28.8262H28.8296H28.833H28.8363H28.8397H28.843H28.8464H28.8498H28.8531H28.8565H28.8598H28.8632H28.8666H28.8699H28.8733H28.8766H28.88H28.8834H28.8867H28.8901C29.1943 15.1538 29.4918 15.2377 29.7255 15.4301C29.9653 15.6277 30.0999 15.9095 30.1147 16.2203M25.4413 15.1537L29.6153 16.244M25.4413 15.1537L25.432 15.1539C25.1365 15.1593 24.8347 15.231 24.5969 15.4275C24.3455 15.6351 24.2316 15.9275 24.2247 16.2327L24.2247 16.2329C24.2181 16.5298 24.3083 16.8321 24.5365 17.0603C24.7633 17.2871 25.0696 17.3841 25.3868 17.3849M25.4413 15.1537L24.7246 16.244C24.7161 16.6235 24.9522 16.8849 25.3907 16.8849M30.1147 16.2203L29.6153 16.244M30.1147 16.2203C30.1147 16.2201 30.1147 16.2199 30.1147 16.2197L29.6153 16.244M30.1147 16.2203C30.1477 16.9036 29.577 17.3719 28.9338 17.3848L28.9309 17.3849C27.7468 17.4018 26.571 17.4018 25.3868 17.3849M29.6153 16.244C29.6321 16.5898 29.3454 16.8765 28.9238 16.8849C27.7433 16.9018 26.5712 16.9018 25.3907 16.8849M25.3868 17.3849C25.3881 17.3849 25.3894 17.3849 25.3907 17.3849V16.8849M25.3868 17.3849C25.3857 17.3849 25.3846 17.3849 25.3836 17.3848L25.3907 16.8849M20.3001 16.2453V16.244C20.3001 15.0076 20.9038 14.1678 21.9529 13.8274L21.9529 13.8274L21.9567 13.8261C22.1989 13.7454 22.4725 13.7084 22.7514 13.7084L22.7528 13.7084C25.6946 13.7 28.6363 13.7 31.5696 13.7084C33.0101 13.7158 34.0312 14.7359 34.0312 16.1597V16.1603C34.0397 23.1924 34.0397 30.2161 34.0312 37.2481V37.2487C34.0312 38.6759 33.0071 39.7 31.58 39.7L31.5785 39.7C28.6704 39.7084 25.7622 39.7084 22.8541 39.7H22.8526C22.0537 39.7 21.4284 39.4395 21.0032 39.0169C20.5783 38.5945 20.3123 37.9692 20.3086 37.1621L20.3086 37.162C20.2959 34.5455 20.2975 31.9343 20.2991 29.319C20.2996 28.4466 20.3001 27.5737 20.3001 26.7C20.3001 25.5386 20.2992 24.3767 20.2983 23.2147C20.2964 20.8908 20.2945 18.5665 20.3001 16.2453ZM27.193 38.2462L27.1932 38.2462C28.1266 38.2342 28.8741 37.4703 28.8757 36.535C28.886 35.557 28.1377 34.8093 27.1699 34.8093C26.2081 34.8093 25.4268 35.577 25.4388 36.5382C25.4507 37.4905 26.2439 38.2581 27.193 38.2462Z" stroke="#E60000"/>
</g>
</g>
<defs>
<filter id="filter0_b_288_4642" x="7.79639" y="1.20212" width="38.7412" height="51.0042" filterUnits="userSpaceOnUse" color-interpolation-filters="sRGB">
<feFlood flood-opacity="0" result="BackgroundImageFix"/>
<feGaussianBlur in="BackgroundImageFix" stdDeviation="6"/>
<feComposite in2="SourceAlpha" operator="in" result="effect1_backgroundBlur_288_4642"/>
<feBlend mode="normal" in="SourceGraphic" in2="effect1_backgroundBlur_288_4642" result="shape"/>
</filter>
<clipPath id="clip0_288_4642">
<rect width="14.7311" height="27" fill="white" transform="translate(19.8 13.2)"/>
</clipPath>
</defs>
</svg>
