<svg width="54" height="54" viewBox="0 0 54 54" fill="none" xmlns="http://www.w3.org/2000/svg">
<rect x="0.5" y="0.5" width="53" height="53" rx="9.5" fill="#141414"/>
<rect x="0.5" y="0.5" width="53" height="53" rx="9.5" stroke="#1F1F1F"/>
<g clip-path="url(#clip0_288_4658)">
<g filter="url(#filter0_b_288_4658)">
<mask id="path-2-inside-1_288_4658" fill="white">
<path fill-rule="evenodd" clip-rule="evenodd" d="M14.1003 29.5093V29.8693C22.781 29.8693 31.4031 29.8693 40.0586 29.8609V29.5009V18.2388C40.0586 17.4517 39.7071 17.1 38.9034 17.1H15.2555C14.4435 17.1 14.1003 17.4517 14.1003 18.2471V29.5093ZM26.2932 25.7229C25.9432 25.9254 25.5907 26.1293 25.2337 26.3358V21.4123C26.1397 21.94 27.0321 22.4542 27.9347 22.9743C28.4498 23.2711 28.9683 23.5698 29.4945 23.874C28.4097 24.4986 27.3629 25.1041 26.2932 25.7229ZM36.008 34.3641C35.9252 34.1611 35.8405 33.9534 35.7559 33.7378H35.7566C36.8864 33.7378 37.9493 33.7378 38.9954 33.7294C39.5646 33.721 39.9999 33.4028 40.0251 32.8921C40.054 32.4059 40.0469 31.9158 40.0398 31.4216C40.0366 31.2008 40.0334 30.9792 40.0334 30.7569H14.0918V32.532C14.0918 33.3777 14.4434 33.7294 15.2805 33.7294H18.3861C18.1266 34.3825 17.8838 34.9854 17.6411 35.5883C17.5406 35.8562 17.4988 36.1242 17.8336 36.2498C18.1601 36.3754 18.3191 36.1577 18.428 35.8897C18.5015 35.7082 18.5765 35.5275 18.6515 35.3468C18.8324 34.9106 19.0132 34.4749 19.173 34.0308C19.2651 33.788 19.3906 33.7294 19.6334 33.7294C24.5974 33.7378 29.5613 33.7378 34.5253 33.7294C34.7848 33.7294 34.8936 33.8131 34.9774 34.0476C35.1673 34.5517 35.3699 35.043 35.5742 35.5383C35.604 35.6107 35.6339 35.6832 35.6638 35.7557C35.6847 35.8018 35.7035 35.8458 35.7224 35.8897C35.7412 35.9337 35.76 35.9776 35.781 36.0237C35.8898 36.2665 36.1158 36.3837 36.3167 36.2414C36.4506 36.1493 36.5678 35.8562 36.5176 35.7055C36.3725 35.2584 36.1952 34.8234 36.008 34.3641ZM30.2394 32.4064H27.0584C26.7072 32.4064 26.355 32.4055 26.0024 32.4046C25.2965 32.4027 24.5893 32.4008 23.8858 32.4064C23.6012 32.4064 23.325 32.3729 23.3166 32.0129C23.3082 31.6444 23.5845 31.5691 23.8942 31.5691H30.2478C30.5491 31.5691 30.8337 31.6361 30.8337 32.0045C30.8337 32.3897 30.5324 32.4064 30.2394 32.4064Z"/>
</mask>
<path fill-rule="evenodd" clip-rule="evenodd" d="M14.1003 29.5093V29.8693C22.781 29.8693 31.4031 29.8693 40.0586 29.8609V29.5009V18.2388C40.0586 17.4517 39.7071 17.1 38.9034 17.1H15.2555C14.4435 17.1 14.1003 17.4517 14.1003 18.2471V29.5093ZM26.2932 25.7229C25.9432 25.9254 25.5907 26.1293 25.2337 26.3358V21.4123C26.1397 21.94 27.0321 22.4542 27.9347 22.9743C28.4498 23.2711 28.9683 23.5698 29.4945 23.874C28.4097 24.4986 27.3629 25.1041 26.2932 25.7229ZM36.008 34.3641C35.9252 34.1611 35.8405 33.9534 35.7559 33.7378H35.7566C36.8864 33.7378 37.9493 33.7378 38.9954 33.7294C39.5646 33.721 39.9999 33.4028 40.0251 32.8921C40.054 32.4059 40.0469 31.9158 40.0398 31.4216C40.0366 31.2008 40.0334 30.9792 40.0334 30.7569H14.0918V32.532C14.0918 33.3777 14.4434 33.7294 15.2805 33.7294H18.3861C18.1266 34.3825 17.8838 34.9854 17.6411 35.5883C17.5406 35.8562 17.4988 36.1242 17.8336 36.2498C18.1601 36.3754 18.3191 36.1577 18.428 35.8897C18.5015 35.7082 18.5765 35.5275 18.6515 35.3468C18.8324 34.9106 19.0132 34.4749 19.173 34.0308C19.2651 33.788 19.3906 33.7294 19.6334 33.7294C24.5974 33.7378 29.5613 33.7378 34.5253 33.7294C34.7848 33.7294 34.8936 33.8131 34.9774 34.0476C35.1673 34.5517 35.3699 35.043 35.5742 35.5383C35.604 35.6107 35.6339 35.6832 35.6638 35.7557C35.6847 35.8018 35.7035 35.8458 35.7224 35.8897C35.7412 35.9337 35.76 35.9776 35.781 36.0237C35.8898 36.2665 36.1158 36.3837 36.3167 36.2414C36.4506 36.1493 36.5678 35.8562 36.5176 35.7055C36.3725 35.2584 36.1952 34.8234 36.008 34.3641ZM30.2394 32.4064H27.0584C26.7072 32.4064 26.355 32.4055 26.0024 32.4046C25.2965 32.4027 24.5893 32.4008 23.8858 32.4064C23.6012 32.4064 23.325 32.3729 23.3166 32.0129C23.3082 31.6444 23.5845 31.5691 23.8942 31.5691H30.2478C30.5491 31.5691 30.8337 31.6361 30.8337 32.0045C30.8337 32.3897 30.5324 32.4064 30.2394 32.4064Z" fill="#E60000"/>
<path d="M14.1003 29.8693H13.1003V30.8693H14.1003V29.8693ZM40.0586 29.8609L40.0596 30.8609L41.0586 30.86V29.8609H40.0586ZM25.2337 26.3358H24.2337V28.0691L25.7342 27.2015L25.2337 26.3358ZM26.2932 25.7229L26.794 26.5885L26.794 26.5885L26.2932 25.7229ZM25.2337 21.4123L25.737 20.5482L24.2337 19.6725V21.4123H25.2337ZM27.9347 22.9743L27.4355 23.8407L27.4355 23.8407L27.9347 22.9743ZM29.4945 23.874L29.9934 24.7406L31.4955 23.8759L29.995 23.0083L29.4945 23.874ZM35.7559 33.7378V32.7378H34.2888L34.8251 34.1033L35.7559 33.7378ZM36.008 34.3641L36.934 33.9867L36.934 33.9867L36.008 34.3641ZM38.9954 33.7294L39.0034 34.7294L39.0101 34.7293L38.9954 33.7294ZM40.0251 32.8921L39.0268 32.8327L39.0263 32.843L40.0251 32.8921ZM40.0398 31.4216L39.0399 31.436L39.0399 31.436L40.0398 31.4216ZM40.0334 30.7569H41.0334V29.7569H40.0334V30.7569ZM14.0918 30.7569V29.7569H13.0918V30.7569H14.0918ZM18.3861 33.7294L19.3154 34.0986L19.8595 32.7294H18.3861V33.7294ZM17.6411 35.5883L16.7135 35.2148L16.709 35.2259L16.7047 35.2372L17.6411 35.5883ZM17.8336 36.2498L18.1927 35.3164L18.1848 35.3135L17.8336 36.2498ZM18.428 35.8897L19.3545 36.266L19.3547 36.2653L18.428 35.8897ZM18.6515 35.3468L17.7278 34.9636L17.7278 34.9636L18.6515 35.3468ZM19.173 34.0308L18.2379 33.6763L18.2349 33.6842L18.2321 33.6922L19.173 34.0308ZM19.6334 33.7294L19.6351 32.7294H19.6334V33.7294ZM34.5253 33.7294L34.5253 32.7294L34.5236 32.7294L34.5253 33.7294ZM34.9774 34.0476L34.0356 34.3838L34.0385 34.392L34.0416 34.4001L34.9774 34.0476ZM35.5742 35.5383L34.6497 35.9196L34.6497 35.9196L35.5742 35.5383ZM35.6638 35.7557L34.7391 36.1364L34.7459 36.1531L34.7534 36.1695L35.6638 35.7557ZM35.7224 35.8897L36.6416 35.4959L36.6416 35.4959L35.7224 35.8897ZM35.781 36.0237L36.6935 35.6147L36.6914 35.61L35.781 36.0237ZM36.3167 36.2414L35.75 35.4173L35.7386 35.4254L36.3167 36.2414ZM36.5176 35.7055L35.5664 36.0142L35.5689 36.0216L36.5176 35.7055ZM26.0024 32.4046L25.9998 33.4046L25.9998 33.4046L26.0024 32.4046ZM23.8858 32.4064L23.8858 33.4064L23.8938 33.4064L23.8858 32.4064ZM23.3166 32.0129L22.3169 32.0356L22.3169 32.0361L23.3166 32.0129ZM15.1003 29.8693V29.5093H13.1003V29.8693H15.1003ZM40.0577 28.8609C31.4027 28.8693 22.781 28.8693 14.1003 28.8693V30.8693C22.7809 30.8693 31.4035 30.8693 40.0596 30.8609L40.0577 28.8609ZM39.0586 29.5009V29.8609H41.0586V29.5009H39.0586ZM39.0586 18.2388V29.5009H41.0586V18.2388H39.0586ZM38.9034 18.1C39.036 18.1 39.1032 18.1151 39.1268 18.1224C39.144 18.1277 39.1161 18.1217 39.0792 18.0852C39.0419 18.0483 39.034 18.0185 39.0379 18.0308C39.0439 18.0499 39.0586 18.1119 39.0586 18.2388H41.0586C41.0586 17.7195 40.9451 17.1178 40.4856 16.6633C40.0286 16.2112 39.4261 16.1 38.9034 16.1V18.1ZM15.2555 18.1H38.9034V16.1H15.2555V18.1ZM15.1003 18.2471C15.1003 18.1153 15.1151 18.0499 15.1218 18.0282C15.1264 18.0134 15.119 18.0438 15.0806 18.0823C15.0422 18.1207 15.0123 18.1276 15.0287 18.1225C15.0519 18.1153 15.1198 18.1 15.2555 18.1V16.1C14.7315 16.1 14.1243 16.21 13.6662 16.6683C13.2079 17.1267 13.1003 17.732 13.1003 18.2471H15.1003ZM15.1003 29.5093V18.2471H13.1003V29.5093H15.1003ZM25.7342 27.2015C26.0914 26.995 26.444 26.791 26.794 26.5885L25.7925 24.8573C25.4424 25.0598 25.0901 25.2637 24.7331 25.4701L25.7342 27.2015ZM24.2337 21.4123V26.3358H26.2337V21.4123H24.2337ZM28.4339 22.1078C27.531 21.5876 26.6406 21.0745 25.737 20.5482L24.7303 22.2763C25.6387 22.8055 26.5332 23.3209 27.4355 23.8407L28.4339 22.1078ZM29.995 23.0083C29.4681 22.7036 28.949 22.4045 28.4339 22.1078L27.4355 23.8407C27.9507 24.1376 28.4685 24.4359 28.9939 24.7397L29.995 23.0083ZM26.794 26.5885C27.8637 25.9697 28.9097 25.3646 29.9934 24.7406L28.9955 23.0074C27.9097 23.6326 26.862 24.2386 25.7925 24.8573L26.794 26.5885ZM34.8251 34.1033C34.9125 34.3258 34.9995 34.5394 35.082 34.7416L36.934 33.9867C36.8509 33.7828 36.7686 33.5809 36.6866 33.3722L34.8251 34.1033ZM35.7566 32.7378H35.7559V34.7378H35.7566V32.7378ZM38.9874 32.7294C37.946 32.7378 36.8872 32.7378 35.7566 32.7378V34.7378C36.8856 34.7378 37.9526 34.7378 39.0034 34.7294L38.9874 32.7294ZM39.0263 32.843C39.0268 32.8315 39.0311 32.805 39.0475 32.7738C39.0635 32.7432 39.0828 32.7236 39.095 32.714C39.1061 32.7052 39.106 32.7087 39.0868 32.7149C39.0675 32.7211 39.0325 32.7287 38.9807 32.7295L39.0101 34.7293C39.9139 34.716 40.9643 34.1519 41.0238 32.9412L39.0263 32.843ZM39.0399 31.436C39.0471 31.9366 39.0532 32.3896 39.0268 32.8327L41.0233 32.9515C41.0548 32.4222 41.0467 31.8949 41.0397 31.4072L39.0399 31.436ZM39.0334 30.7569C39.0334 30.9876 39.0367 31.2164 39.0399 31.436L41.0397 31.4072C41.0365 31.1852 41.0334 30.9708 41.0334 30.7569H39.0334ZM14.0918 31.7569H40.0334V29.7569H14.0918V31.7569ZM15.0918 32.532V30.7569H13.0918V32.532H15.0918ZM15.2805 32.7294C15.1359 32.7294 15.0621 32.7136 15.0346 32.7051C15.0146 32.699 15.0435 32.7047 15.0813 32.7428C15.119 32.7806 15.1237 32.8085 15.1168 32.7858C15.1078 32.7559 15.0918 32.6794 15.0918 32.532H13.0918C13.0918 33.063 13.1974 33.6846 13.6631 34.1529C14.1302 34.6227 14.7514 34.7294 15.2805 34.7294V32.7294ZM18.3861 32.7294H15.2805V34.7294H18.3861V32.7294ZM18.5687 35.9618C18.8114 35.3591 19.055 34.7542 19.3154 34.0986L17.4568 33.3602C17.1982 34.0108 16.9563 34.6116 16.7135 35.2148L18.5687 35.9618ZM18.1848 35.3135C18.2158 35.3251 18.3061 35.3657 18.3968 35.4681C18.4933 35.5771 18.5436 35.7033 18.5612 35.8124C18.5768 35.9087 18.5644 35.9725 18.5627 35.9812C18.5607 35.9911 18.5619 35.9807 18.5774 35.9393L16.7047 35.2372C16.6485 35.3873 16.5229 35.7371 16.587 36.1324C16.6235 36.3576 16.7198 36.5912 16.8995 36.7941C17.0734 36.9905 17.2841 37.1117 17.4824 37.1861L18.1848 35.3135ZM17.5015 35.5134C17.4869 35.5493 17.4818 35.5551 17.4887 35.5441C17.4951 35.534 17.5294 35.4809 17.6039 35.4238C17.6871 35.36 17.8027 35.3053 17.9387 35.2903C18.0678 35.2759 18.1589 35.3035 18.1927 35.3165L17.4745 37.1831C17.9142 37.3522 18.4117 37.3247 18.8209 37.0108C19.1383 36.7675 19.2873 36.4315 19.3545 36.266L17.5015 35.5134ZM17.7278 34.9636C17.6531 35.1436 17.5765 35.3282 17.5012 35.5141L19.3547 36.2653C19.4265 36.0883 19.4999 35.9113 19.5751 35.73L17.7278 34.9636ZM18.2321 33.6922C18.0817 34.11 17.9103 34.5237 17.7278 34.9636L19.5751 35.73C19.7546 35.2974 19.9446 34.8398 20.1139 34.3695L18.2321 33.6922ZM19.6334 32.7294C19.4567 32.7294 19.1363 32.7446 18.8231 32.937C18.4885 33.1427 18.3253 33.4459 18.2379 33.6763L20.108 34.3854C20.1127 34.373 20.0584 34.5254 19.8702 34.6411C19.7035 34.7435 19.5673 34.7294 19.6334 34.7294V32.7294ZM34.5236 32.7294C29.5608 32.7378 24.5979 32.7378 19.6351 32.7294L19.6317 34.7294C24.5968 34.7378 29.5619 34.7378 34.527 34.7294L34.5236 32.7294ZM35.9191 33.7113C35.8502 33.5182 35.7131 33.2123 35.3998 32.9877C35.084 32.7615 34.746 32.7294 34.5253 32.7294V34.7294C34.5642 34.7294 34.4103 34.7392 34.2348 34.6134C34.0617 34.4894 34.0208 34.3425 34.0356 34.3838L35.9191 33.7113ZM36.4986 35.1571C36.2934 34.6595 36.0967 34.1823 35.9132 33.6951L34.0416 34.4001C34.2378 34.921 34.4464 35.4266 34.6497 35.9196L36.4986 35.1571ZM36.5885 35.3751C36.5585 35.3021 36.5285 35.2294 36.4986 35.1571L34.6497 35.9196C34.6796 35.992 34.7093 36.0642 34.7391 36.1364L36.5885 35.3751ZM36.6416 35.4959C36.6233 35.4532 36.6003 35.3995 36.5742 35.342L34.7534 36.1695C34.7691 36.2041 34.7838 36.2383 34.8032 36.2836L36.6416 35.4959ZM36.6914 35.61C36.6756 35.5753 36.6609 35.5411 36.6416 35.4959L34.8032 36.2835C34.8215 36.3263 34.8445 36.3799 34.8706 36.4374L36.6914 35.61ZM35.7386 35.4254C35.8164 35.3703 35.9266 35.3206 36.0618 35.3068C36.1962 35.293 36.3189 35.3185 36.4168 35.3616C36.6019 35.4429 36.6733 35.5695 36.6935 35.6147L34.8684 36.4326C34.9975 36.7207 35.2363 37.0273 35.6118 37.1924C36.0299 37.3762 36.5088 37.3309 36.8948 37.0573L35.7386 35.4254ZM35.5689 36.0216C35.5184 35.87 35.5293 35.755 35.5334 35.7207C35.5388 35.6757 35.5481 35.6488 35.5526 35.6372C35.5574 35.6248 35.566 35.6054 35.5842 35.5784C35.5976 35.5588 35.6472 35.4881 35.7501 35.4174L36.8834 37.0654C37.1893 36.855 37.3473 36.5429 37.4198 36.3537C37.4867 36.1794 37.6022 35.7971 37.4663 35.3893L35.5689 36.0216ZM35.082 34.7416C35.2716 35.207 35.4346 35.6079 35.5665 36.0142L37.4688 35.3968C37.3104 34.9089 37.1187 34.4398 36.934 33.9867L35.082 34.7416ZM27.0584 33.4064H30.2394V31.4064H27.0584V33.4064ZM25.9998 33.4046C26.3521 33.4055 26.7056 33.4064 27.0584 33.4064V31.4064C26.7087 31.4064 26.3578 31.4055 26.0051 31.4046L25.9998 33.4046ZM23.8938 33.4064C24.5911 33.4008 25.293 33.4027 25.9998 33.4046L26.0051 31.4046C25.3 31.4027 24.5875 31.4008 23.8779 31.4064L23.8938 33.4064ZM22.3169 32.0361C22.3219 32.2523 22.3692 32.4981 22.5064 32.732C22.6478 32.9733 22.8462 33.1359 23.0468 33.2373C23.3901 33.4107 23.7562 33.4064 23.8858 33.4064V31.4064C23.8594 31.4064 23.8405 31.406 23.8265 31.4054C23.8124 31.4047 23.8076 31.404 23.8095 31.4042C23.8114 31.4045 23.8252 31.4064 23.8474 31.4124C23.8697 31.4186 23.9053 31.4303 23.9485 31.4521C24.0434 31.5 24.1533 31.5868 24.2317 31.7205C24.3058 31.8469 24.3155 31.9534 24.3163 31.9896L22.3169 32.0361ZM23.8942 30.5691C23.701 30.5691 23.3193 30.5839 22.9666 30.7984C22.5092 31.0764 22.3058 31.5506 22.3169 32.0356L24.3163 31.9902C24.3171 32.0229 24.3128 32.1186 24.2534 32.2368C24.1907 32.3618 24.0964 32.4521 24.0056 32.5073C23.9249 32.5564 23.8634 32.5682 23.854 32.5699C23.8432 32.5719 23.8532 32.5691 23.8942 32.5691V30.5691ZM30.2478 30.5691H23.8942V32.5691H30.2478V30.5691ZM31.8337 32.0045C31.8337 31.7836 31.7906 31.5393 31.6643 31.3056C31.5351 31.0664 31.3495 30.8955 31.1536 30.7825C30.8041 30.5808 30.4306 30.5691 30.2478 30.5691V32.5691C30.2901 32.5691 30.3023 32.5718 30.2948 32.5705C30.2886 32.5694 30.2313 32.5594 30.1539 32.5148C30.0669 32.4645 29.9713 32.3794 29.9048 32.2564C29.8413 32.1389 29.8337 32.0412 29.8337 32.0045H31.8337ZM30.2394 33.4064C30.3455 33.4064 30.7233 33.4178 31.0699 33.2558C31.2783 33.1584 31.4925 32.9939 31.6437 32.7373C31.7896 32.4895 31.8337 32.2289 31.8337 32.0045H29.8337C29.8337 31.9726 29.8401 31.8586 29.9204 31.7223C30.0059 31.5771 30.1265 31.4891 30.223 31.444C30.3048 31.4057 30.3598 31.4023 30.3472 31.4037C30.3364 31.4049 30.3099 31.4064 30.2394 31.4064V33.4064Z" fill="#E60000" mask="url(#path-2-inside-1_288_4658)"/>
</g>
</g>
<defs>
<filter id="filter0_b_288_4658" x="2.0918" y="5.10001" width="49.9668" height="43.203" filterUnits="userSpaceOnUse" color-interpolation-filters="sRGB">
<feFlood flood-opacity="0" result="BackgroundImageFix"/>
<feGaussianBlur in="BackgroundImageFix" stdDeviation="6"/>
<feComposite in2="SourceAlpha" operator="in" result="effect1_backgroundBlur_288_4658"/>
<feBlend mode="normal" in="SourceGraphic" in2="effect1_backgroundBlur_288_4658" result="shape"/>
</filter>
<clipPath id="clip0_288_4658">
<rect width="25.95" height="19.2" fill="white" transform="translate(14.1001 17.1)"/>
</clipPath>
</defs>
</svg>
